<svg width="982" height="1181" viewBox="0 0 982 1181" fill="none" xmlns="http://www.w3.org/2000/svg">
<g opacity="0.1">
<g filter="url(#filter0_f_432_6890)">
<path d="M341.004 580.376C336.284 574.928 332.037 569.063 328.209 562.881C325.792 559.986 323.262 557.165 320.607 554.427C302.056 535.294 294.842 505.971 292.865 480.1C292.222 471.686 292.176 463.154 293.711 454.838C293.894 453.846 294.27 453.295 294.416 452.71C294.352 452.223 294.29 451.735 294.23 451.248C291.036 425.359 293.206 400.142 297.686 374.383C301.96 349.816 309.015 320.73 324.672 300.672C339.317 281.909 361.328 273.078 382.561 263.757C401.934 255.253 421.905 245.19 442.886 241.297C454.081 239.221 465.482 241.723 475.805 246.15C498.521 255.893 521.99 269.994 537.247 289.912C559.256 318.646 557.767 358.842 566.932 392.425C577.402 430.785 588.574 468.636 613.499 500.358C627.418 518.071 641.922 535.194 658.237 550.743C675.084 566.799 692.755 582.345 706.853 600.989C727.214 627.915 741.19 660.388 741.673 694.44C742.518 753.886 699.346 807.616 643.988 826.887C612.918 837.704 573.971 831.787 544.396 819.449C503.338 802.321 464.836 777.117 433.783 745.115C401.05 711.381 382.207 669.342 364.462 626.706C357.76 610.603 350.337 594.881 341.004 580.376Z" fill="#FF5050"/>
</g>
<g filter="url(#filter1_f_432_6890)">
<path d="M313.291 527.854C314.584 520.762 316.499 513.779 318.923 506.923C319.667 503.227 320.283 499.488 320.756 495.703C324.062 469.259 342.412 445.276 361.348 427.538C367.506 421.77 374.131 416.393 381.577 412.383C382.465 411.905 383.13 411.853 383.678 411.601C384.018 411.246 384.359 410.893 384.701 410.541C402.889 391.842 423.912 377.748 446.804 365.115C468.636 353.068 495.734 340.361 521.177 340.013C544.976 339.687 565.643 351.322 586.204 362.044C604.964 371.827 625.313 381.1 641.484 395.025C650.112 402.455 655.298 412.911 658.308 423.733C664.932 447.546 668.628 474.675 662.647 499.041C654.019 534.192 621.743 558.195 601.293 586.367C577.934 618.546 555.412 650.953 546.28 690.249C541.181 712.192 536.908 734.222 534.997 756.678C533.024 779.867 531.964 803.379 526.251 826.044C518.001 858.779 501.429 890.006 475.178 911.701C429.351 949.575 360.425 949.547 310.742 918.444C282.856 900.987 263.088 866.912 254.194 836.126C241.847 793.386 237.396 747.584 242.911 703.335C248.724 656.691 269.71 615.679 291.848 575.15C300.209 559.842 307.822 544.211 313.291 527.854Z" fill="#F99E73"/>
</g>
</g>
<defs>
<filter id="filter0_f_432_6890" x="52.4434" y="0.556641" width="929.242" height="1071.99" filterUnits="userSpaceOnUse" color-interpolation-filters="sRGB">
<feFlood flood-opacity="0" result="BackgroundImageFix"/>
<feBlend mode="normal" in="SourceGraphic" in2="BackgroundImageFix" result="shape"/>
<feGaussianBlur stdDeviation="120" result="effect1_foregroundBlur_432_6890"/>
</filter>
<filter id="filter1_f_432_6890" x="0.576172" y="100.006" width="905.084" height="1080.99" filterUnits="userSpaceOnUse" color-interpolation-filters="sRGB">
<feFlood flood-opacity="0" result="BackgroundImageFix"/>
<feBlend mode="normal" in="SourceGraphic" in2="BackgroundImageFix" result="shape"/>
<feGaussianBlur stdDeviation="120" result="effect1_foregroundBlur_432_6890"/>
</filter>
</defs>
</svg>
