<svg width="371" height="104" viewBox="0 0 371 104" fill="none" xmlns="http://www.w3.org/2000/svg">
<g opacity="0.06">
<path d="M189.524 -8.27271C189.524 -6.97312 190.045 -5.72676 190.973 -4.80781C191.9 -3.88887 193.158 -3.37261 194.47 -3.37261C195.782 -3.37261 197.04 -3.88887 197.967 -4.80781C198.895 -5.72676 199.416 -6.97312 199.416 -8.27271H189.524ZM75.7623 -7.9983C66.466 -7.97683 57.2711 -6.08297 48.7365 -2.43179C48.1207 -2.2018 47.5573 -1.85235 47.0795 -1.40391C46.6016 -0.955464 46.219 -0.417052 45.9539 0.17978C45.6888 0.776613 45.5466 1.41986 45.5356 2.07183C45.5247 2.7238 45.6452 3.37138 45.8901 3.97663C46.135 4.58187 46.4993 5.1326 46.9618 5.59655C47.4243 6.06051 47.9756 6.42834 48.5835 6.67851C49.1913 6.92868 49.8434 7.05615 50.5016 7.05345C51.1598 7.05075 51.8108 6.91794 52.4165 6.66279C59.7829 3.48837 67.7292 1.84721 75.7623 1.8411C83.7949 1.8411 91.7483 3.48753 99.1082 6.66279C100.067 7.08105 101.134 7.18718 102.157 6.9659C103.18 6.74461 104.106 6.20734 104.801 5.43145C105.497 4.65556 105.925 3.68111 106.026 2.64843C106.126 1.61575 105.893 0.578143 105.36 -0.314947C104.779 -1.29713 103.869 -2.04628 102.788 -2.43179C94.2535 -6.08297 85.0587 -7.97683 75.7623 -7.9983V-7.9983ZM179.671 -6.70467C178.863 -6.6463 178.081 -6.39202 177.395 -5.9642C176.709 -5.53639 176.14 -4.94814 175.738 -4.25121C175.335 -3.55429 175.112 -2.77004 175.087 -1.96745C175.062 -1.16487 175.237 -0.368545 175.595 0.351466C176.137 1.51895 176.786 2.63438 177.534 3.68353C177.9 4.2257 178.371 4.69018 178.92 5.04979C179.468 5.40939 180.084 5.65688 180.731 5.77776C181.377 5.89865 182.042 5.89049 182.685 5.75377C183.329 5.61706 183.938 5.35453 184.478 4.98156C185.017 4.6086 185.477 4.13269 185.828 3.58173C186.18 3.03076 186.417 2.4158 186.526 1.77287C186.635 1.12995 186.613 0.471974 186.462 -0.162509C186.311 -0.796992 186.033 -1.39523 185.646 -1.92218C185.222 -2.51638 184.852 -3.14596 184.538 -3.80382C184.128 -4.71752 183.446 -5.48515 182.583 -6.00368C181.72 -6.52221 180.718 -6.76682 179.711 -6.70467H179.671ZM131.199 -6.11666C130.514 -6.06588 129.848 -5.87448 129.242 -5.55462C128.636 -5.23476 128.104 -4.79346 127.68 -4.2588C127.255 -3.72414 126.948 -3.10783 126.777 -2.44908C126.607 -1.79034 126.576 -1.1036 126.688 -0.432549C127.783 8.72545 130.745 17.5676 135.393 25.5576C140.039 33.5366 146.272 40.4981 153.714 46.0204C154.438 46.6184 155.321 46.9988 156.256 47.1165C157.192 47.2341 158.142 47.0843 158.995 46.6847C159.847 46.285 160.567 45.6521 161.068 44.8607C161.57 44.0693 161.833 43.1523 161.825 42.2179C161.825 40.6107 161.034 39.1602 159.807 38.2978C153.356 33.5549 147.955 27.551 143.94 20.6575C139.922 13.756 137.377 6.11089 136.462 -1.80458C136.312 -3.05578 135.682 -4.20188 134.702 -5.00487C133.722 -5.80786 132.467 -6.20602 131.199 -6.11666V-6.11666ZM164.12 -3.2158C163.348 -3.16731 162.598 -2.93988 161.93 -2.5518C161.262 -2.16373 160.696 -1.62586 160.277 -0.981436C159.857 -0.337018 159.596 0.395954 159.515 1.15852C159.433 1.92108 159.533 2.69196 159.807 3.40913C161.353 7.90731 163.773 12.0623 166.93 15.6398C167.577 16.4283 168.455 16.9981 169.443 17.2703C170.431 17.5426 171.48 17.5038 172.445 17.1593C173.41 16.8148 174.243 16.1817 174.829 15.3476C175.414 14.5136 175.724 13.5197 175.714 12.5037C175.714 11.2885 175.239 10.1517 174.488 9.28924C172.091 6.62033 170.26 3.50071 169.106 0.116262C168.76 -0.904746 168.084 -1.78441 167.183 -2.38672C166.282 -2.98902 165.206 -3.2804 164.12 -3.2158V-3.2158ZM147.778 -2.9414C147.046 -2.89206 146.335 -2.68207 145.695 -2.32664C145.055 -1.97121 144.503 -1.47923 144.079 -0.886352C143.655 -0.293474 143.369 0.385463 143.242 1.10127C143.116 1.81708 143.151 2.55184 143.347 3.25232C144.521 8.3304 146.454 13.206 149.084 17.7174C151.712 22.2284 155.006 26.3245 158.858 29.8697C159.549 30.5489 160.428 31.0107 161.383 31.1973C162.339 31.3839 163.328 31.2869 164.229 30.9185C165.129 30.5501 165.899 29.9267 166.443 29.1265C166.987 28.3262 167.28 27.3847 167.286 26.42C167.286 24.9696 166.692 23.6759 165.703 22.7743C162.52 19.8788 159.798 16.5216 157.631 12.8173C155.475 9.10199 153.9 5.08385 152.962 0.900277C152.709 -0.243224 152.051 -1.25926 151.108 -1.96393C150.164 -2.6686 148.997 -3.01534 147.818 -2.9414H147.778ZM275.587 4.27154C274.4 4.27154 273.252 4.70275 272.421 5.40837C264.964 10.9259 258.718 17.8878 254.061 25.8712C249.413 33.8611 246.451 42.7033 245.356 51.8613C245.178 53.1505 245.523 54.4571 246.317 55.4936C247.111 56.5302 248.289 57.2119 249.59 57.3886C250.891 57.5653 252.21 57.2227 253.256 56.4361C254.303 55.6495 254.991 54.4833 255.169 53.1941C256.077 45.295 258.609 37.6639 262.608 30.7713C266.634 23.8733 272.049 17.8689 278.515 13.1309C279.362 12.519 279.991 11.6563 280.311 10.6672C280.631 9.67806 280.626 8.61379 280.296 7.62798C279.965 6.64216 279.328 5.78581 278.474 5.18252C277.621 4.57923 276.596 4.26022 275.547 4.27154H275.587ZM75.7623 7.68201C70.4996 7.68201 65.2765 8.50523 60.2512 10.0341C59.6276 10.2142 59.046 10.5143 58.5395 10.9172C58.033 11.3201 57.6116 11.8178 57.2993 12.382C56.9869 12.9462 56.7899 13.5659 56.7193 14.2056C56.6487 14.8452 56.7059 15.4924 56.8878 16.1102C57.0697 16.7279 57.3726 17.3041 57.7792 17.8059C58.1859 18.3077 58.6883 18.7252 59.2578 19.0346C59.8274 19.344 60.4528 19.5393 61.0985 19.6092C61.7442 19.6792 62.3975 19.6224 63.021 19.4422C67.1435 18.1537 71.4396 17.4928 75.7623 17.4822C80.1149 17.4822 84.3884 18.1878 88.5036 19.4422C89.7629 19.8061 91.1166 19.6595 92.2668 19.0346C93.417 18.4097 94.2695 17.3578 94.6368 16.1102C95.0042 14.8626 94.8561 13.5215 94.2254 12.382C93.5946 11.2425 92.5328 10.3979 91.2735 10.0341C86.2508 8.48651 81.0223 7.69368 75.7623 7.68201V7.68201ZM281.047 20.0695C279.663 20.0695 278.436 20.6183 277.565 21.5199C273.701 25.0631 270.393 29.1592 267.752 33.6721C265.136 38.1858 263.216 43.0613 262.054 48.1372C261.843 48.7775 261.767 49.4542 261.831 50.1249C261.895 50.7957 262.098 51.4461 262.428 52.0355C262.757 52.625 263.206 53.1408 263.745 53.5507C264.285 53.9607 264.904 54.2559 265.565 54.4181C266.225 54.5802 266.911 54.6057 267.582 54.4931C268.252 54.3804 268.892 54.1319 269.462 53.7632C270.031 53.3945 270.517 52.9135 270.89 52.3502C271.263 51.7868 271.515 51.1533 271.63 50.4893C272.582 46.3038 274.17 42.2858 276.339 38.5722C278.502 34.8541 281.224 31.4835 284.411 28.576C285.145 27.9073 285.657 27.0344 285.882 26.0719C286.106 25.1094 286.032 24.1021 285.668 23.1824C285.304 22.2626 284.668 21.4731 283.844 20.9176C283.019 20.3621 282.045 20.0665 281.047 20.0695V20.0695ZM75.7623 23.4015C73.3882 23.4015 70.9745 23.6367 68.6399 24.1071C67.6266 24.2625 66.687 24.7261 65.9513 25.4336C65.2156 26.1412 64.72 27.0578 64.5331 28.0566C64.3463 29.0554 64.4774 30.087 64.9083 31.0088C65.3392 31.9306 66.0486 32.6969 66.9384 33.2017C68.0463 33.8289 69.273 33.9857 70.4205 33.7505C73.9455 33.0388 77.5792 33.0388 81.1042 33.7505C81.7433 33.8664 82.3992 33.8563 83.0345 33.721C83.6697 33.5857 84.2718 33.3278 84.8064 32.962C85.341 32.5961 85.7977 32.1296 86.1503 31.5889C86.5029 31.0482 86.7446 30.444 86.8615 29.8109C86.9784 29.1777 86.9683 28.5278 86.8317 27.8985C86.6951 27.2692 86.4348 26.6727 86.0655 26.1431C85.6962 25.6134 85.2253 25.161 84.6795 24.8117C84.1338 24.4624 83.5239 24.223 82.8848 24.1071C80.5395 23.6427 78.154 23.4064 75.7623 23.4015V23.4015ZM289.476 33.9465C287.893 33.9465 286.548 34.6129 285.637 35.7498C282.481 39.3279 280.062 43.4826 278.515 47.9804C278.251 48.5949 278.116 49.2565 278.12 49.9244C278.123 50.5923 278.264 51.2525 278.535 51.8644C278.805 52.4763 279.199 53.027 279.691 53.4827C280.184 53.9383 280.766 54.2893 281.401 54.5142C282.036 54.739 282.71 54.8328 283.383 54.79C284.056 54.7471 284.713 54.5684 285.313 54.2649C285.914 53.9614 286.446 53.5395 286.876 53.025C287.306 52.5105 287.625 51.9144 287.814 51.2733C288.953 47.8907 290.77 44.7707 293.156 42.1003C293.788 41.3953 294.201 40.5246 294.346 39.5927C294.491 38.6608 294.361 37.7073 293.973 36.8465C293.584 35.9857 292.953 35.2543 292.156 34.7399C291.358 34.2255 290.427 33.95 289.476 33.9465V33.9465ZM75.7623 39.0818C75.1292 39.0818 74.4565 39.121 73.8234 39.1994C73.1692 39.2466 72.5309 39.4222 71.9458 39.7161C71.3607 40.0099 70.8405 40.4162 70.4154 40.9111C69.9903 41.4061 69.6688 41.9798 69.4696 42.599C69.2705 43.2183 69.1977 43.8705 69.2554 44.5179C69.3131 45.1652 69.5003 45.7947 69.8059 46.3698C70.1116 46.9448 70.5296 47.4538 71.0358 47.8673C71.5419 48.2807 72.126 48.5903 72.754 48.7779C73.382 48.9656 74.0415 49.0277 74.694 48.9604C75.4178 48.8921 76.1465 48.8921 76.8703 48.9604C77.5198 49.0145 78.1737 48.9413 78.7947 48.745C79.4157 48.5486 79.9915 48.2331 80.4894 47.8163C80.9873 47.3995 81.3974 46.8896 81.6964 46.3158C81.9954 45.742 82.1773 45.1154 82.2319 44.4719C82.2865 43.8285 82.2125 43.1806 82.0144 42.5654C81.8162 41.9502 81.4977 41.3797 81.077 40.8865C80.6563 40.3933 80.1416 39.9869 79.5624 39.6908C78.9832 39.3946 78.3508 39.2143 77.7012 39.1602C77.0563 39.1079 76.4094 39.0817 75.7623 39.0818V39.0818ZM300.318 45.5892C298.616 45.5892 297.113 46.4124 296.202 47.7452C295.465 48.7946 294.83 49.9101 294.303 51.0773C293.985 51.6639 293.79 52.3088 293.732 52.9724C293.673 53.636 293.752 54.3044 293.963 54.9368C294.174 55.5693 294.513 56.1524 294.96 56.6506C295.406 57.1489 295.95 57.5517 296.559 57.8346C297.168 58.1175 297.828 58.2744 298.5 58.2958C299.172 58.3172 299.842 58.2026 300.468 57.9591C301.093 57.7156 301.663 57.3482 302.14 56.8794C302.618 56.4106 302.994 55.8502 303.246 55.2326C303.549 54.5691 303.92 53.9386 304.354 53.3509C304.886 52.6175 305.204 51.7524 305.271 50.8514C305.339 49.9504 305.153 49.0484 304.736 48.2452C304.318 47.442 303.684 46.7688 302.905 46.3001C302.125 45.8314 301.23 45.5853 300.318 45.5892V45.5892ZM313.178 54.7621C311.866 54.7621 310.608 55.2784 309.68 56.1974C308.753 57.1163 308.232 58.3627 308.232 59.6622C308.232 60.9618 308.753 62.2082 309.68 63.1271C310.608 64.0461 311.866 64.5623 313.178 64.5623C314.489 64.5623 315.748 64.0461 316.675 63.1271C317.603 62.2082 318.124 60.9618 318.124 59.6622C318.124 58.3627 317.603 57.1163 316.675 56.1974C315.748 55.2784 314.489 54.7621 313.178 54.7621ZM76.1184 54.7621C75.4689 54.7184 74.817 54.8018 74.2 55.0076C73.583 55.2135 73.013 55.5377 72.5225 55.9617C72.032 56.3858 71.6305 56.9014 71.3412 57.4792C71.0518 58.057 70.8801 58.6855 70.836 59.329C70.7918 59.9725 70.876 60.6183 71.0838 61.2296C71.2915 61.8408 71.6188 62.4056 72.0468 62.8915C72.4749 63.3775 72.9954 63.7752 73.5786 64.0618C74.1618 64.3485 74.7962 64.5186 75.4458 64.5623C76.7576 64.6507 78.0511 64.2192 79.0417 63.3627C80.0324 62.5063 80.6391 61.295 80.7283 59.9955C80.8175 58.6959 80.3819 57.4144 79.5174 56.433C78.6529 55.4515 77.4303 54.8505 76.1184 54.7621V54.7621ZM327.937 61.1911C326.922 61.1149 325.909 61.3531 325.037 61.8729C324.165 62.3926 323.477 63.1681 323.07 64.0919C322.778 64.7526 322.42 65.3829 322.002 65.9736C321.614 66.5005 321.337 67.0988 321.186 67.7332C321.035 68.3677 321.013 69.0257 321.122 69.6686C321.23 70.3115 321.468 70.9265 321.819 71.4775C322.171 72.0284 322.63 72.5043 323.17 72.8773C323.71 73.2503 324.319 73.5128 324.962 73.6495C325.606 73.7862 326.27 73.7944 326.917 73.6735C327.563 73.5526 328.179 73.3051 328.728 72.9455C329.277 72.5859 329.748 72.1214 330.113 71.5793C330.863 70.5307 331.512 69.4152 332.052 68.2472C332.412 67.5243 332.586 66.7247 332.559 65.9192C332.532 65.1137 332.305 64.3272 331.898 63.6294C331.491 62.9316 330.917 62.344 330.226 61.9187C329.535 61.4933 328.749 61.2434 327.937 61.1911V61.1911ZM376.409 61.8183C375.139 61.719 373.879 62.1135 372.896 62.9184C371.914 63.7232 371.287 64.8752 371.147 66.1304C370.244 74.043 367.712 81.6879 363.708 88.5924C359.681 95.4897 354.266 101.494 347.801 106.233C347.289 106.629 346.861 107.122 346.541 107.682C346.221 108.242 346.016 108.859 345.937 109.498C345.858 110.137 345.907 110.785 346.081 111.405C346.255 112.025 346.55 112.605 346.95 113.113C347.35 113.62 347.847 114.044 348.413 114.36C348.978 114.677 349.601 114.88 350.246 114.959C350.891 115.037 351.545 114.989 352.171 114.817C352.797 114.644 353.383 114.352 353.894 113.955C361.351 108.438 367.598 101.476 372.255 93.4925C376.904 85.503 379.866 76.6606 380.96 67.5024C381.072 66.8283 381.04 66.1385 380.867 65.4772C380.694 64.8159 380.383 64.1978 379.954 63.6626C379.526 63.1273 378.989 62.6867 378.379 62.3691C377.768 62.0515 377.097 61.8639 376.409 61.8183V61.8183ZM343.567 64.7191C342.467 64.6296 341.37 64.9098 340.451 65.5143C339.532 66.1189 338.845 67.0126 338.502 68.0512C337.36 71.4325 335.543 74.5519 333.16 77.2242C332.528 77.9292 332.115 78.7999 331.97 79.7318C331.825 80.6637 331.955 81.6172 332.343 82.478C332.732 83.3388 333.363 84.0702 334.16 84.5846C334.958 85.099 335.888 85.3744 336.84 85.378C338.423 85.378 339.768 84.6723 340.678 83.5747C343.834 79.9966 346.254 75.8418 347.801 71.3441C348.082 70.6278 348.189 69.856 348.113 69.0912C348.038 68.3263 347.782 67.5898 347.366 66.9411C346.95 66.2924 346.385 65.7497 345.719 65.357C345.052 64.9642 344.301 64.7322 343.527 64.6799L343.567 64.7191ZM359.83 64.9936C358.649 64.9113 357.478 65.2549 356.532 65.9609C355.587 66.667 354.931 67.6878 354.686 68.8352C353.747 73.0188 352.173 77.0369 350.017 80.7523C347.85 84.4565 345.128 87.8137 341.944 90.7093C341.437 91.1444 341.024 91.6774 340.731 92.2757C340.438 92.8741 340.271 93.5253 340.24 94.1896C340.209 94.854 340.315 95.5177 340.551 96.1401C340.788 96.7626 341.149 97.3309 341.615 97.8105C342.08 98.29 342.639 98.6706 343.257 98.9293C343.876 99.1879 344.541 99.3192 345.212 99.3149C345.883 99.3107 346.547 99.1712 347.162 98.9048C347.777 98.6384 348.331 98.2507 348.79 97.7654C352.639 94.2326 355.933 90.1498 358.564 85.6524C361.183 81.1265 363.104 76.2375 364.262 71.1481C364.45 70.4501 364.48 69.7196 364.35 69.0086C364.221 68.2977 363.934 67.6241 363.51 67.0359C363.087 66.4477 362.537 65.9596 361.901 65.6066C361.264 65.2535 360.557 65.0441 359.83 64.9936ZM73.9026 70.4033C72.5908 70.3929 71.3285 70.8991 70.3935 71.8107C69.4585 72.7223 68.9273 73.9646 68.9169 75.2642C68.9064 76.5637 69.4174 77.8142 70.3376 78.7405C71.2577 79.6668 72.5116 80.1931 73.8234 80.2034C75.1131 80.3253 76.4115 80.3253 77.7012 80.2034C78.3508 80.1468 78.9827 79.964 79.5609 79.6654C80.1391 79.3669 80.6523 78.9584 81.0712 78.4633C81.4901 77.9683 81.8064 77.3963 82.0022 76.7802C82.1979 76.164 82.2693 75.5156 82.2121 74.8721C82.1549 74.2287 81.9704 73.6026 81.669 73.0298C81.3677 72.4569 80.9553 71.9485 80.4556 71.5336C79.9559 71.1186 79.3786 70.8052 78.7566 70.6112C78.1347 70.4173 77.4802 70.3466 76.8307 70.4033C76.1072 70.4766 75.3779 70.4766 74.6544 70.4033C74.391 70.3823 74.1264 70.3823 73.863 70.4033H73.9026ZM-5.31501 72.2457C-6.34975 72.2539 -7.35585 72.5833 -8.19167 73.1877C-9.02748 73.7921 -9.65092 74.6409 -9.97421 75.6147C-10.2975 76.5885 -10.3044 77.6383 -9.99382 78.6162C-9.68328 79.5941 -9.07098 80.4508 -8.24313 81.0659C-1.79168 85.8088 3.60878 91.8127 7.62412 98.7062C11.6315 105.609 14.1636 113.255 15.0631 121.168C15.2468 122.457 15.9399 123.622 16.9899 124.405C18.0399 125.187 19.3609 125.525 20.6622 125.343C21.9635 125.161 23.1385 124.475 23.9288 123.434C24.7191 122.394 25.06 121.085 24.8763 119.796C23.7821 110.638 20.8204 101.796 16.1711 93.8061C11.5144 85.8228 5.26782 78.8608 -2.18904 73.3433C-3.08133 72.6204 -4.20202 72.2319 -5.35458 72.2457H-5.31501ZM69.5104 85.574C68.2726 85.5667 67.0771 86.0195 66.1599 86.8429C65.2426 87.6663 64.6704 88.8004 64.556 90.0215C64.4417 91.2425 64.7937 92.4616 65.5425 93.4381C66.2912 94.4145 67.3823 95.0774 68.6003 95.2958C73.3031 96.2169 78.1424 96.2169 82.8452 95.2958C83.487 95.1825 84.0999 94.9451 84.6491 94.5972C85.1982 94.2493 85.6728 93.7976 86.0457 93.2679C86.4187 92.7383 86.6827 92.1411 86.8226 91.5104C86.9626 90.8797 86.9758 90.2278 86.8615 89.592C86.7472 88.9563 86.5076 88.349 86.1564 87.805C85.8052 87.261 85.3492 86.7908 84.8146 86.4213C84.28 86.0518 83.6772 85.7903 83.0405 85.6516C82.4039 85.513 81.7459 85.4999 81.1042 85.6132C77.5792 86.3249 73.9455 86.3249 70.4205 85.6132C70.1202 85.5595 69.8155 85.5332 69.5104 85.5348V85.574ZM-10.8151 88.0828C-11.8089 88.0877 -12.7781 88.389 -13.5965 88.9475C-14.4149 89.506 -15.0444 90.2958 -15.4032 91.2139C-15.7619 92.1321 -15.8332 93.1359 -15.6077 94.0948C-15.3822 95.0536 -14.8704 95.9229 -14.1389 96.5894C-10.9734 99.4902 -8.24314 102.862 -6.06683 106.546C-3.91113 110.262 -2.33683 114.28 -1.39766 118.463C-1.18267 119.426 -0.679806 120.301 0.0452658 120.976C0.770338 121.651 1.68392 122.093 2.66673 122.246C3.64954 122.398 4.65589 122.253 5.55439 121.83C6.45289 121.407 7.20178 120.726 7.70326 119.875C8.37594 118.699 8.49465 117.366 8.21766 116.111C7.04367 111.033 5.10977 106.158 2.48012 101.646C-0.14774 97.1353 -3.44207 93.0392 -7.29347 89.494C-7.75763 89.0405 -8.30771 88.6823 -8.91209 88.4401C-9.51647 88.1979 -10.1632 88.0765 -10.8151 88.0828V88.0828ZM61.003 99.7254C59.8535 99.8417 58.7814 100.353 57.9727 101.171C57.164 101.988 56.6698 103.061 56.5758 104.201C56.4818 105.342 56.7939 106.48 57.4581 107.417C58.1222 108.353 59.0964 109.03 60.2116 109.33C65.2471 110.88 70.4891 111.673 75.7623 111.682C81.025 111.682 86.2482 110.898 91.2735 109.33C91.897 109.149 92.4786 108.849 92.9851 108.446C93.4916 108.044 93.9131 107.546 94.2254 106.982C94.5377 106.417 94.7348 105.798 94.8054 105.158C94.876 104.518 94.8187 103.871 94.6368 103.254C94.455 102.636 94.1521 102.06 93.7454 101.558C93.3388 101.056 92.8363 100.638 92.2668 100.329C91.6973 100.02 91.0718 99.8244 90.4261 99.7545C89.7805 99.6845 89.1272 99.7413 88.5036 99.9214C84.381 101.209 80.085 101.87 75.7623 101.881C71.4263 101.874 67.1167 101.213 62.9815 99.9214C62.3422 99.7241 61.6691 99.6574 61.003 99.7254V99.7254ZM-19.2038 101.881C-20.1556 101.885 -21.0861 102.16 -21.8837 102.675C-22.6814 103.189 -23.3123 103.921 -23.7007 104.781C-24.0892 105.642 -24.2188 106.596 -24.0739 107.528C-23.9289 108.46 -23.5157 109.33 -22.8837 110.035C-20.4983 112.706 -18.6814 115.826 -17.5419 119.208C-17.2359 120.095 -16.6795 120.877 -15.9387 121.46C-15.1978 122.043 -14.3037 122.404 -13.3623 122.499C-12.4209 122.594 -11.4718 122.419 -10.6275 121.996C-9.78329 121.572 -9.07936 120.918 -8.59926 120.11C-7.80787 118.777 -7.72874 117.248 -8.20357 115.915C-9.76234 111.414 -12.1954 107.259 -15.3656 103.685C-15.83 103.121 -16.4154 102.666 -17.0793 102.354C-17.7433 102.042 -18.469 101.881 -19.2038 101.881V101.881ZM50.2402 112.309C49.101 112.36 48.0147 112.8 47.165 113.553C46.3154 114.307 45.7547 115.328 45.5778 116.444C45.4009 117.56 45.6187 118.702 46.1943 119.677C46.7699 120.653 47.668 121.401 48.7365 121.795C57.2711 125.447 66.466 127.341 75.7623 127.362C85.0691 127.357 94.2777 125.477 102.828 121.835C103.43 121.593 103.979 121.236 104.443 120.783C104.906 120.331 105.275 119.793 105.529 119.2C105.782 118.607 105.915 117.97 105.92 117.325C105.925 116.681 105.802 116.042 105.558 115.445C105.314 114.848 104.953 114.304 104.497 113.845C104.041 113.386 103.497 113.02 102.899 112.769C102.3 112.518 101.657 112.386 101.006 112.381C100.356 112.376 99.7109 112.498 99.1082 112.74C91.7414 115.913 83.7954 117.555 75.7623 117.562C67.7293 117.555 59.7833 115.913 52.4165 112.74C51.7298 112.45 50.9861 112.316 50.2402 112.348V112.309ZM-30.0458 113.485C-30.9677 113.478 -31.8733 113.726 -32.6605 114.201C-33.4476 114.677 -34.085 115.361 -34.5006 116.176C-34.9162 116.991 -35.0935 117.905 -35.0125 118.815C-34.9315 119.725 -34.5955 120.594 -34.0423 121.325C-33.6268 121.904 -33.269 122.521 -32.9739 123.167C-32.6985 123.752 -32.3096 124.277 -31.8295 124.712C-31.3493 125.147 -30.7873 125.485 -30.1756 125.705C-29.5638 125.925 -28.9142 126.024 -28.2639 125.996C-27.6137 125.967 -26.9754 125.812 -26.3856 125.539C-25.7958 125.266 -25.2661 124.881 -24.8266 124.405C-24.3871 123.93 -24.0465 123.373 -23.8242 122.767C-23.6019 122.161 -23.5023 121.517 -23.531 120.873C-23.5597 120.229 -23.7163 119.597 -23.9917 119.012C-24.5446 117.843 -25.207 116.727 -25.9701 115.68C-26.421 115.019 -27.028 114.477 -27.7382 114.102C-28.4485 113.726 -29.2406 113.528 -30.0458 113.524V113.485ZM431.885 122.736C430.574 122.736 429.315 123.253 428.388 124.172C427.46 125.09 426.939 126.337 426.939 127.636C426.939 128.936 427.46 130.182 428.388 131.101C429.315 132.02 430.574 132.536 431.885 132.536V122.736ZM-42.9453 122.736V132.536C-41.6335 132.536 -40.3755 132.02 -39.4479 131.101C-38.5203 130.182 -37.9992 128.936 -37.9992 127.636C-37.9992 126.337 -38.5203 125.09 -39.4479 124.172C-40.3755 123.253 -41.6335 122.736 -42.9453 122.736V122.736ZM313.178 127.911C303.884 127.92 294.689 129.8 286.152 133.438C285.536 133.668 284.973 134.018 284.495 134.466C284.017 134.914 283.634 135.453 283.369 136.05C283.104 136.647 282.962 137.29 282.951 137.942C282.94 138.594 283.06 139.241 283.305 139.847C283.55 140.452 283.915 141.002 284.377 141.466C284.84 141.93 285.391 142.298 285.999 142.548C286.607 142.799 287.259 142.926 287.917 142.923C288.575 142.921 289.226 142.788 289.832 142.533C297.198 139.358 305.144 137.717 313.178 137.711C321.21 137.711 329.164 139.397 336.524 142.572C337.129 142.811 337.776 142.93 338.428 142.922C339.079 142.913 339.723 142.778 340.322 142.523C340.921 142.268 341.463 141.899 341.918 141.437C342.373 140.974 342.732 140.428 342.973 139.828C343.215 139.228 343.335 138.587 343.327 137.941C343.318 137.296 343.181 136.658 342.924 136.065C342.667 135.471 342.294 134.934 341.827 134.483C341.361 134.033 340.809 133.677 340.203 133.438C331.663 129.814 322.469 127.947 313.178 127.95V127.911ZM417.086 129.165C416.278 129.224 415.497 129.478 414.811 129.906C414.125 130.334 413.556 130.922 413.153 131.619C412.75 132.316 412.527 133.1 412.502 133.902C412.477 134.705 412.652 135.501 413.011 136.221C413.55 137.39 414.199 138.506 414.95 139.553C415.315 140.096 415.786 140.56 416.335 140.92C416.884 141.279 417.499 141.527 418.146 141.648C418.793 141.769 419.457 141.76 420.101 141.624C420.744 141.487 421.353 141.224 421.893 140.851C422.433 140.478 422.892 140.003 423.244 139.452C423.595 138.901 423.833 138.286 423.941 137.643C424.05 137 424.028 136.342 423.877 135.707C423.726 135.073 423.449 134.475 423.061 133.948C422.629 133.359 422.258 132.728 421.953 132.066C421.541 131.146 420.853 130.374 419.982 129.855C419.111 129.336 418.1 129.095 417.086 129.165V129.165ZM368.614 129.792C367.93 129.843 367.263 130.035 366.657 130.354C366.051 130.674 365.519 131.116 365.095 131.65C364.671 132.185 364.363 132.801 364.193 133.46C364.022 134.119 363.992 134.805 364.103 135.477C365.186 144.632 368.134 153.474 372.769 161.467C377.431 169.435 383.677 176.383 391.129 181.89C392.163 182.691 393.475 183.052 394.777 182.894C396.08 182.736 397.265 182.072 398.073 181.047C398.882 180.023 399.246 178.723 399.086 177.433C398.927 176.143 398.256 174.968 397.223 174.168C390.757 169.429 385.343 163.425 381.316 156.527C377.317 149.635 374.785 142.004 373.877 134.105C373.727 132.853 373.097 131.707 372.117 130.904C371.137 130.101 369.883 129.703 368.614 129.792V129.792ZM401.496 132.654C400.722 132.706 399.972 132.938 399.305 133.331C398.638 133.724 398.074 134.267 397.658 134.915C397.242 135.564 396.986 136.3 396.91 137.065C396.835 137.83 396.942 138.602 397.223 139.318C398.77 143.816 401.189 147.971 404.345 151.549C404.754 152.075 405.267 152.514 405.852 152.837C406.437 153.161 407.083 153.364 407.749 153.433C408.416 153.503 409.09 153.437 409.73 153.24C410.37 153.043 410.964 152.72 411.474 152.289C411.984 151.858 412.4 151.329 412.697 150.733C412.995 150.138 413.167 149.489 413.203 148.826C413.24 148.163 413.14 147.5 412.909 146.876C412.679 146.252 412.323 145.682 411.863 145.198C409.48 142.526 407.664 139.407 406.521 136.025C406.181 134.99 405.502 134.097 404.592 133.486C403.682 132.876 402.593 132.583 401.496 132.654V132.654ZM385.194 132.968C384.466 133.018 383.759 133.228 383.123 133.581C382.486 133.934 381.937 134.422 381.513 135.01C381.09 135.598 380.803 136.272 380.673 136.983C380.543 137.694 380.573 138.424 380.762 139.122C381.92 144.212 383.84 149.101 386.46 153.627C389.101 158.139 392.408 162.236 396.273 165.779C396.967 166.46 397.849 166.923 398.808 167.108C399.767 167.293 400.76 167.193 401.662 166.82C402.564 166.447 403.334 165.817 403.874 165.011C404.415 164.205 404.703 163.258 404.701 162.29C404.701 160.879 404.108 159.546 403.119 158.683C396.705 152.839 392.245 145.194 390.338 136.77C390.084 135.62 389.42 134.598 388.468 133.893C387.516 133.187 386.34 132.845 385.154 132.928L385.194 132.968ZM38.1716 140.181C36.9845 140.181 35.8766 140.573 35.006 141.278C27.5492 146.796 21.3026 153.758 16.6459 161.741C11.9976 169.731 9.03594 178.573 7.94068 187.731C7.84974 188.37 7.88661 189.019 8.04918 189.644C8.21174 190.268 8.49682 190.854 8.88814 191.369C9.27945 191.884 9.76935 192.318 10.3298 192.646C10.8903 192.973 11.5105 193.188 12.1548 193.278C12.7991 193.368 13.4551 193.332 14.0852 193.171C14.7153 193.01 15.3072 192.727 15.8271 192.339C16.347 191.952 16.7848 191.466 17.1154 190.911C17.446 190.356 17.6629 189.742 17.7538 189.103C18.6556 181.19 21.1875 173.545 25.1929 166.641C29.2188 159.743 34.6332 153.739 41.0997 149.001C41.9275 148.386 42.5398 147.529 42.8504 146.551C43.1609 145.573 43.1541 144.523 42.8308 143.55C42.5075 142.576 41.884 141.727 41.0482 141.123C40.2124 140.518 39.2063 140.189 38.1716 140.181V140.181ZM313.178 143.591C307.915 143.591 302.692 144.375 297.667 145.943C297.043 146.123 296.461 146.423 295.955 146.826C295.448 147.229 295.027 147.727 294.715 148.291C294.402 148.855 294.205 149.475 294.135 150.115C294.064 150.754 294.121 151.402 294.303 152.019C294.485 152.637 294.788 153.213 295.195 153.715C295.601 154.217 296.104 154.634 296.673 154.944C297.243 155.253 297.868 155.448 298.514 155.518C299.16 155.588 299.813 155.532 300.436 155.351C304.559 154.063 308.855 153.402 313.178 153.391C317.53 153.391 321.804 154.097 325.919 155.351C326.871 155.652 327.893 155.66 328.85 155.374C329.808 155.088 330.655 154.522 331.28 153.749C331.906 152.977 332.28 152.035 332.354 151.047C332.429 150.059 332.199 149.073 331.696 148.217C331.037 147.094 329.956 146.276 328.689 145.943C323.666 144.396 318.438 143.603 313.178 143.591V143.591ZM43.6321 155.979C42.2868 155.979 41.0205 156.527 40.15 157.429C36.2846 160.971 32.9768 165.068 30.3369 169.581C27.7199 174.094 25.7993 178.97 24.6389 184.046C24.483 184.672 24.453 185.322 24.5506 185.959C24.6482 186.595 24.8714 187.207 25.2076 187.759C25.5438 188.31 25.9864 188.791 26.51 189.173C27.0337 189.555 27.6281 189.831 28.2595 189.985C28.8908 190.14 29.5467 190.169 30.1896 190.073C30.8326 189.976 31.45 189.755 32.0067 189.422C32.5634 189.089 33.0483 188.65 33.434 188.132C33.8196 187.613 34.0983 187.024 34.2542 186.398C35.1928 182.215 36.7671 178.197 38.9234 174.481C41.0876 170.764 43.8094 167.393 46.9955 164.485C47.7294 163.816 48.2421 162.944 48.4664 161.981C48.6908 161.018 48.6162 160.011 48.2525 159.091C47.8888 158.172 47.253 157.382 46.4285 156.827C45.604 156.271 44.6292 155.976 43.6321 155.979V155.979ZM313.178 159.271C310.804 159.271 308.39 159.507 306.055 159.977C305.042 160.132 304.102 160.596 303.367 161.304C302.631 162.011 302.135 162.928 301.948 163.926C301.762 164.925 301.893 165.957 302.324 166.879C302.755 167.8 303.464 168.567 304.354 169.072C305.462 169.699 306.688 169.856 307.836 169.62C311.361 168.909 314.995 168.909 318.52 169.62C319.159 169.739 319.815 169.731 320.451 169.598C321.088 169.466 321.691 169.21 322.228 168.846C322.764 168.482 323.223 168.017 323.578 167.477C323.933 166.937 324.177 166.334 324.297 165.7C324.416 165.067 324.409 164.417 324.274 163.787C324.14 163.156 323.882 162.558 323.515 162.027C323.147 161.495 322.678 161.041 322.133 160.689C321.588 160.337 320.979 160.095 320.34 159.977C317.981 159.51 315.583 159.274 313.178 159.271V159.271ZM52.0604 169.856C50.5172 169.856 49.1322 170.522 48.2617 171.62C45.1013 175.209 42.6815 179.378 41.1393 183.89C40.8751 184.504 40.7406 185.166 40.744 185.834C40.7474 186.501 40.8885 187.162 41.1588 187.773C41.4291 188.385 41.8228 188.936 42.3157 189.392C42.8086 189.847 43.3904 190.198 44.0253 190.423C44.6601 190.648 45.3347 190.742 46.0075 190.699C46.6803 190.656 47.3371 190.478 47.9377 190.174C48.5383 189.871 49.0699 189.449 49.4998 188.934C49.9298 188.42 50.2491 187.824 50.438 187.182C51.5757 183.787 53.3925 180.654 55.7799 177.97C56.4141 177.263 56.8279 176.388 56.9715 175.453C57.115 174.517 56.9821 173.561 56.5888 172.699C56.1954 171.836 55.5585 171.105 54.7549 170.594C53.9513 170.082 53.0155 169.812 52.0604 169.816V169.856ZM313.178 174.913C312.545 174.913 311.872 174.913 311.239 175.03C310.585 175.077 309.946 175.253 309.361 175.547C308.776 175.841 308.256 176.247 307.831 176.742C307.406 177.237 307.084 177.811 306.885 178.43C306.686 179.049 306.613 179.701 306.671 180.349C306.728 180.996 306.916 181.625 307.221 182.2C307.527 182.775 307.945 183.285 308.451 183.698C308.957 184.111 309.541 184.421 310.169 184.609C310.797 184.796 311.457 184.858 312.109 184.791C312.833 184.72 313.562 184.72 314.286 184.791C314.935 184.845 315.589 184.772 316.21 184.576C316.831 184.379 317.407 184.064 317.905 183.647C318.403 183.23 318.813 182.72 319.112 182.146C319.411 181.573 319.593 180.946 319.647 180.303C319.702 179.659 319.628 179.011 319.43 178.396C319.232 177.781 318.913 177.21 318.492 176.717C318.072 176.224 317.557 175.818 316.978 175.521C316.399 175.225 315.766 175.045 315.117 174.991C314.472 174.936 313.825 174.91 313.178 174.913V174.913ZM62.9023 181.459C61.2009 181.459 59.7368 182.321 58.7871 183.615C58.0519 184.666 57.4161 185.781 56.8878 186.947C56.5693 187.534 56.3749 188.179 56.3165 188.842C56.2581 189.506 56.3368 190.174 56.5479 190.807C56.7591 191.439 57.0981 192.022 57.5444 192.521C57.9907 193.019 58.5349 193.422 59.1436 193.704C59.7524 193.987 60.4129 194.144 61.085 194.166C61.757 194.187 62.4264 194.073 63.0522 193.829C63.6781 193.585 64.2472 193.218 64.7249 192.749C65.2026 192.281 65.5787 191.72 65.8304 191.102C66.1352 190.44 66.5063 189.81 66.9384 189.221C67.471 188.487 67.7886 187.622 67.856 186.721C67.9234 185.82 67.738 184.918 67.3204 184.115C66.9027 183.312 66.269 182.639 65.4893 182.17C64.7096 181.701 63.8143 181.455 62.9023 181.459V181.459ZM75.7623 190.671C74.4505 190.671 73.1924 191.187 72.2649 192.106C71.3373 193.025 70.8162 194.272 70.8162 195.571C70.8162 196.871 71.3373 198.117 72.2649 199.036C73.1924 199.955 74.4505 200.471 75.7623 200.471C77.0741 200.471 78.3322 199.955 79.2598 199.036C80.1874 198.117 80.7085 196.871 80.7085 195.571C80.7085 194.272 80.1874 193.025 79.2598 192.106C78.3322 191.187 77.0741 190.671 75.7623 190.671V190.671ZM313.534 190.671C312.222 190.583 310.928 191.014 309.938 191.871C308.947 192.727 308.34 193.939 308.251 195.238C308.162 196.538 308.598 197.819 309.462 198.801C310.327 199.782 311.549 200.383 312.861 200.471C313.511 200.515 314.163 200.432 314.78 200.226C315.397 200.02 315.967 199.696 316.457 199.272C316.948 198.848 317.349 198.332 317.638 197.754C317.928 197.177 318.099 196.548 318.144 195.905C318.188 195.261 318.104 194.615 317.896 194.004C317.688 193.393 317.361 192.828 316.933 192.342C316.505 191.856 315.984 191.458 315.401 191.172C314.818 190.885 314.183 190.715 313.534 190.671V190.671ZM90.5216 197.1C89.5134 197.032 88.5086 197.275 87.6445 197.794C86.7805 198.313 86.0994 199.084 85.6942 200.001C85.3892 200.663 85.0181 201.294 84.5863 201.883C84.1989 202.41 83.9215 203.008 83.7704 203.642C83.6193 204.277 83.5975 204.935 83.7063 205.578C83.8151 206.221 84.0523 206.836 84.404 207.387C84.7558 207.938 85.2149 208.413 85.7546 208.786C86.2943 209.159 86.9037 209.422 87.5471 209.559C88.1905 209.695 88.8549 209.703 89.5016 209.583C90.1482 209.462 90.7639 209.214 91.3128 208.855C91.8617 208.495 92.3326 208.031 92.6979 207.488C93.4575 206.439 94.1197 205.324 94.6764 204.156C95.037 203.431 95.2107 202.628 95.1818 201.819C95.153 201.011 94.9226 200.222 94.5111 199.523C94.0997 198.824 93.5201 198.238 92.8239 197.815C92.1278 197.392 91.3368 197.146 90.5216 197.1V197.1ZM138.994 197.688C137.724 197.6 136.468 198.005 135.494 198.817C134.519 199.629 133.901 200.784 133.771 202.039C132.857 209.955 130.311 217.601 126.292 224.502C122.277 231.395 116.876 237.399 110.425 242.142C109.913 242.538 109.485 243.031 109.165 243.591C108.846 244.151 108.64 244.768 108.561 245.407C108.482 246.046 108.531 246.694 108.705 247.314C108.879 247.934 109.174 248.515 109.574 249.022C109.974 249.529 110.471 249.953 111.037 250.269C111.602 250.586 112.225 250.79 112.87 250.868C113.515 250.946 114.169 250.898 114.795 250.726C115.421 250.553 116.007 250.261 116.519 249.864C123.975 244.347 130.222 237.385 134.879 229.402C139.527 221.412 142.489 212.569 143.584 203.411C143.702 202.731 143.674 202.034 143.501 201.366C143.329 200.697 143.015 200.072 142.582 199.532C142.149 198.992 141.605 198.548 140.987 198.23C140.368 197.913 139.689 197.728 138.994 197.688V197.688ZM106.151 200.589C105.047 200.502 103.945 200.788 103.026 201.4C102.106 202.012 101.423 202.914 101.087 203.96C99.9452 207.342 98.1285 210.462 95.7448 213.133C95.2849 213.616 94.929 214.187 94.6986 214.811C94.4682 215.435 94.3683 216.098 94.4047 216.761C94.4411 217.424 94.6133 218.073 94.9106 218.668C95.2079 219.264 95.6243 219.793 96.1344 220.224C96.6445 220.654 97.2377 220.978 97.8779 221.175C98.5182 221.372 99.1921 221.437 99.8588 221.368C100.526 221.299 101.171 221.096 101.756 220.772C102.341 220.448 102.854 220.01 103.263 219.484C106.422 215.908 108.842 211.753 110.385 207.253C110.666 206.537 110.774 205.765 110.698 205C110.622 204.235 110.366 203.499 109.95 202.85C109.534 202.202 108.97 201.659 108.303 201.266C107.637 200.873 106.886 200.641 106.112 200.589H106.151ZM122.454 200.903C121.273 200.82 120.102 201.164 119.157 201.87C118.211 202.576 117.555 203.597 117.31 204.744C116.347 208.932 114.746 212.951 112.562 216.661C110.407 220.363 107.699 223.72 104.529 226.618C103.798 227.285 103.286 228.154 103.06 229.113C102.835 230.072 102.906 231.076 103.265 231.994C103.624 232.912 104.253 233.702 105.072 234.26C105.89 234.819 106.859 235.12 107.853 235.125C109.238 235.125 110.465 234.576 111.375 233.714C115.226 230.168 118.52 226.072 121.148 221.561C123.799 217.014 125.699 212.153 126.886 207.057C127.074 206.359 127.105 205.629 126.975 204.918C126.845 204.207 126.558 203.533 126.134 202.945C125.711 202.357 125.161 201.869 124.525 201.516C123.889 201.163 123.181 200.953 122.454 200.903V200.903ZM311.318 206.273C310.668 206.268 310.024 206.39 309.422 206.631C308.82 206.873 308.272 207.229 307.809 207.681C307.346 208.132 306.977 208.669 306.724 209.262C306.47 209.854 306.337 210.491 306.332 211.134C306.327 211.778 306.45 212.416 306.694 213.012C306.937 213.609 307.297 214.152 307.753 214.61C308.209 215.069 308.751 215.434 309.349 215.685C309.947 215.936 310.589 216.068 311.239 216.073C312.528 216.195 313.827 216.195 315.117 216.073C315.766 216.017 316.398 215.834 316.976 215.535C317.554 215.237 318.068 214.828 318.487 214.333C318.905 213.838 319.222 213.266 319.418 212.65C319.613 212.034 319.685 211.386 319.627 210.742C319.57 210.099 319.386 209.473 319.084 208.9C318.783 208.327 318.371 207.818 317.871 207.403C317.371 206.988 316.794 206.675 316.172 206.481C315.55 206.287 314.896 206.217 314.246 206.273C313.522 206.347 312.793 206.347 312.07 206.273C311.806 206.252 311.542 206.252 311.278 206.273H311.318ZM232.1 208.116C231.055 208.113 230.036 208.438 229.189 209.044C228.342 209.65 227.711 210.507 227.386 211.491C227.061 212.475 227.058 213.535 227.379 214.521C227.7 215.506 228.328 216.365 229.172 216.975C235.609 221.722 240.996 227.726 245 234.615C249.024 241.503 251.582 249.134 252.518 257.038C252.569 257.707 252.758 258.358 253.073 258.951C253.388 259.544 253.823 260.067 254.351 260.487C254.878 260.907 255.487 261.216 256.139 261.393C256.792 261.571 257.474 261.614 258.144 261.52C258.814 261.426 259.458 261.197 260.035 260.847C260.612 260.496 261.11 260.032 261.499 259.484C261.887 258.935 262.158 258.313 262.295 257.656C262.431 257 262.43 256.322 262.292 255.666C261.197 246.508 258.236 237.666 253.586 229.676C248.925 221.707 242.679 214.758 235.226 209.252C234.34 208.515 233.218 208.113 232.061 208.116H232.1ZM306.926 221.444C305.688 221.437 304.492 221.889 303.575 222.713C302.658 223.536 302.086 224.67 301.971 225.891C301.857 227.112 302.209 228.331 302.958 229.308C303.707 230.284 304.798 230.947 306.016 231.166C310.719 232.086 315.558 232.086 320.261 231.166C320.914 231.068 321.542 230.842 322.106 230.5C322.67 230.159 323.159 229.708 323.544 229.176C323.929 228.644 324.203 228.041 324.349 227.402C324.495 226.763 324.51 226.102 324.394 225.457C324.277 224.813 324.032 224.198 323.671 223.649C323.311 223.1 322.843 222.628 322.295 222.261C321.748 221.894 321.132 221.64 320.483 221.513C319.834 221.386 319.167 221.389 318.52 221.522C314.995 222.234 311.361 222.234 307.836 221.522C307.537 221.455 307.232 221.416 306.926 221.405V221.444ZM226.6 223.953C225.603 223.95 224.628 224.245 223.804 224.801C222.979 225.356 222.343 226.146 221.98 227.066C221.616 227.985 221.542 228.993 221.766 229.955C221.99 230.918 222.503 231.791 223.237 232.459C226.402 235.36 229.172 238.731 231.309 242.416C233.483 246.141 235.071 250.173 236.018 254.373C236.233 255.335 236.736 256.21 237.461 256.885C238.186 257.56 239.099 258.002 240.082 258.155C241.065 258.307 242.071 258.162 242.97 257.739C243.868 257.316 244.617 256.635 245.119 255.784C245.791 254.608 245.91 253.275 245.633 252.06C244.463 246.968 242.529 242.079 239.895 237.555C237.267 233.045 233.973 228.949 230.122 225.403C229.658 224.95 229.108 224.591 228.503 224.349C227.899 224.107 227.252 223.986 226.6 223.992V223.953ZM298.418 235.595C297.269 235.712 296.197 236.223 295.388 237.041C294.579 237.858 294.085 238.93 293.991 240.071C293.897 241.212 294.209 242.35 294.873 243.287C295.538 244.223 296.512 244.9 297.627 245.2C302.662 246.751 307.904 247.544 313.178 247.552C318.44 247.552 323.664 246.768 328.649 245.2C329.909 244.836 330.97 243.991 331.601 242.852C332.232 241.712 332.38 240.371 332.013 239.123C331.645 237.876 330.793 236.824 329.643 236.199C328.492 235.574 327.139 235.427 325.879 235.791C321.757 237.079 317.461 237.74 313.138 237.751C308.825 237.751 304.512 237.085 300.397 235.791C299.757 235.594 299.084 235.527 298.418 235.595V235.595ZM218.212 237.791C217.26 237.794 216.329 238.07 215.532 238.584C214.734 239.098 214.103 239.83 213.715 240.691C213.326 241.551 213.197 242.505 213.341 243.437C213.486 244.369 213.9 245.239 214.532 245.944C216.915 248.616 218.732 251.736 219.873 255.117C220.179 256.004 220.736 256.786 221.477 257.369C222.218 257.952 223.112 258.313 224.053 258.408C224.994 258.503 225.944 258.328 226.788 257.905C227.632 257.481 228.336 256.827 228.816 256.019C229.607 254.725 229.687 253.196 229.212 251.864C227.66 247.348 225.227 243.178 222.05 239.594C221.585 239.03 221 238.575 220.336 238.263C219.672 237.951 218.946 237.79 218.212 237.791V237.791ZM287.656 248.218C286.516 248.269 285.43 248.709 284.58 249.462C283.731 250.216 283.17 251.237 282.993 252.353C282.816 253.469 283.034 254.611 283.61 255.587C284.185 256.562 285.083 257.31 286.152 257.705C294.689 261.342 303.884 263.223 313.178 263.232C322.485 263.228 331.693 261.347 340.243 257.705C340.846 257.463 341.395 257.105 341.858 256.653C342.321 256.201 342.69 255.663 342.944 255.07C343.197 254.477 343.331 253.84 343.336 253.195C343.341 252.551 343.218 251.912 342.973 251.315C342.729 250.718 342.369 250.174 341.912 249.715C341.456 249.256 340.913 248.89 340.314 248.639C339.715 248.388 339.072 248.256 338.422 248.251C337.771 248.246 337.126 248.368 336.524 248.61C329.157 251.784 321.211 253.426 313.178 253.432C305.185 253.432 297.192 251.785 289.871 248.61C289.173 248.314 288.415 248.18 287.656 248.218V248.218ZM207.37 249.433C206.461 249.437 205.571 249.688 204.797 250.159C204.023 250.631 203.395 251.305 202.982 252.107C202.569 252.909 202.387 253.808 202.456 254.705C202.525 255.603 202.842 256.464 203.373 257.195C203.79 257.787 204.147 258.417 204.441 259.077C204.809 259.908 205.402 260.623 206.155 261.14C206.909 261.657 207.792 261.957 208.707 262.006C209.622 262.054 210.533 261.85 211.338 261.416C212.143 260.982 212.81 260.335 213.265 259.547C214.096 258.057 214.096 256.333 213.424 254.921C212.867 253.766 212.205 252.664 211.445 251.628C210.999 250.96 210.394 250.411 209.683 250.028C208.973 249.645 208.178 249.441 207.37 249.433V249.433ZM194.153 258.606C192.897 258.696 191.723 259.257 190.87 260.175C190.018 261.093 189.55 262.298 189.563 263.545H199.456C199.463 262.868 199.328 262.196 199.06 261.573C198.792 260.949 198.396 260.388 197.898 259.924C197.4 259.46 196.81 259.103 196.165 258.876C195.521 258.649 194.836 258.557 194.153 258.606V258.606Z" fill="white"/>
<path d="M31.2469 -8.27271C31.2469 -6.97312 31.7681 -5.72676 32.6956 -4.80781C33.6232 -3.88887 34.8813 -3.37261 36.1931 -3.37261C37.5049 -3.37261 38.763 -3.88887 39.6906 -4.80781C40.6181 -5.72676 41.1393 -6.97312 41.1393 -8.27271H31.2469ZM347.801 -8.27271C347.801 -6.97312 348.322 -5.72676 349.249 -4.80781C350.177 -3.88887 351.435 -3.37261 352.747 -3.37261C354.059 -3.37261 355.317 -3.88887 356.244 -4.80781C357.172 -5.72676 357.693 -6.97312 357.693 -8.27271H347.801ZM234.514 -7.9983C222.376 -8.09832 210.433 -4.97122 199.931 1.05708C189.566 7.01752 180.958 15.565 174.967 25.8478C168.975 36.1305 165.809 47.7893 165.782 59.6622C165.771 70.2104 168.253 80.6146 173.028 90.0423C177.804 99.47 184.74 107.659 193.283 113.955C193.795 114.352 194.38 114.644 195.006 114.817C195.632 114.989 196.286 115.037 196.931 114.959C197.576 114.88 198.199 114.677 198.765 114.36C199.33 114.044 199.827 113.62 200.227 113.112C200.627 112.605 200.923 112.025 201.097 111.405C201.27 110.785 201.319 110.137 201.24 109.498C201.161 108.859 200.956 108.242 200.636 107.682C200.316 107.122 199.888 106.629 199.377 106.233C192.017 100.855 186.037 93.8373 181.92 85.7475C177.803 77.6577 175.663 68.7222 175.675 59.6622C175.696 49.5159 178.4 39.5521 183.516 30.7625C188.633 21.973 195.984 14.6642 204.837 9.56365C212.752 5.0281 221.633 2.4021 230.762 1.89815C239.891 1.39419 249.011 3.02643 257.385 6.66279C258.343 7.08105 259.411 7.18718 260.434 6.96589C261.457 6.74461 262.383 6.20734 263.078 5.43145C263.773 4.65556 264.202 3.6811 264.302 2.64843C264.403 1.61575 264.17 0.578143 263.637 -0.314948C263.054 -1.29497 262.144 -2.04337 261.065 -2.43179C252.689 -6.015 243.676 -7.90741 234.554 -7.9983H234.514ZM-3.85095 -7.9983C-12.9898 -7.90023 -22.0168 -5.99436 -30.4019 -2.39259C-31.0793 -2.21365 -31.7105 -1.8941 -32.2538 -1.45513C-32.797 -1.01616 -33.2399 -0.467797 -33.553 0.153605C-33.8661 0.775007 -34.0423 1.45525 -34.0699 2.14923C-34.0975 2.84321 -33.9758 3.53507 -33.713 4.17895C-33.4502 4.82282 -33.0523 5.404 -32.5456 5.88394C-32.0388 6.36388 -31.4349 6.73163 -30.7738 6.96279C-30.1128 7.19396 -29.4096 7.28326 -28.7111 7.22478C-28.0125 7.1663 -27.3345 6.96137 -26.722 6.62359C-18.3532 2.99371 -9.23999 1.36493 -0.118498 1.86885C9.003 2.37277 17.8769 4.99526 25.7864 9.52445C34.6474 14.6201 42.0061 21.9267 47.1297 30.7166C52.2532 39.5065 54.9628 49.4729 54.9885 59.623C54.9997 68.683 52.8603 77.6185 48.743 85.7083C44.6257 93.7981 38.646 100.815 31.2865 106.194C30.7747 106.59 30.3467 107.082 30.0269 107.643C29.7072 108.203 29.5019 108.82 29.4229 109.459C29.3439 110.098 29.3927 110.746 29.5665 111.366C29.7403 111.986 30.0357 112.566 30.4358 113.073C30.8359 113.58 31.3329 114.004 31.8984 114.321C32.464 114.638 33.0869 114.841 33.7318 114.92C34.3766 114.998 35.0307 114.949 35.6567 114.777C36.2827 114.605 36.8683 114.313 37.3802 113.916C45.9229 107.62 52.8595 99.4308 57.6348 90.0031C62.4102 80.5754 64.8917 70.1712 64.8808 59.623C64.8338 47.77 61.6573 36.1355 55.6667 25.8752C49.6762 15.6149 41.0802 7.08587 30.7326 1.13548C20.2375 -4.92022 8.29421 -8.07452 -3.85095 -7.9983V-7.9983ZM337.948 -6.70467C337.14 -6.6463 336.358 -6.39202 335.672 -5.9642C334.986 -5.53639 334.417 -4.94814 334.015 -4.25122C333.612 -3.55429 333.389 -2.77004 333.364 -1.96745C333.339 -1.16487 333.514 -0.368546 333.872 0.351466C335.655 4.23262 338.615 7.46648 342.34 9.60285C345.501 11.4015 349.082 12.348 352.727 12.348C356.372 12.348 359.953 11.4015 363.114 9.60285C366.854 7.47284 369.828 4.2383 371.621 0.351466C372.178 -0.828559 372.238 -2.17915 371.789 -3.40318C371.34 -4.62722 370.419 -5.62444 369.227 -6.17546C368.036 -6.72649 366.673 -6.78618 365.438 -6.34141C364.202 -5.89664 363.195 -4.98384 362.639 -3.80382C361.759 -1.94031 360.361 -0.363966 358.609 0.740379C356.857 1.84472 354.824 2.43129 352.747 2.43129C350.67 2.43129 348.637 1.84472 346.885 0.740379C345.132 -0.363966 343.734 -1.94031 342.855 -3.80382C342.44 -4.7308 341.746 -5.5076 340.867 -6.02716C339.988 -6.54671 338.968 -6.78342 337.948 -6.70467V-6.70467ZM289.476 -6.15586C288.784 -6.11092 288.109 -5.92232 287.495 -5.6023C286.882 -5.28229 286.343 -4.83801 285.914 -4.2983C285.485 -3.7586 285.175 -3.13554 285.005 -2.46955C284.834 -1.80357 284.807 -1.10955 284.925 -0.43255C286.147 10.0464 289.829 20.0963 295.676 28.9118C301.524 37.7274 309.374 45.0635 318.599 50.3325C328.982 56.2483 340.75 59.3618 352.727 59.3618C364.705 59.3618 376.473 56.2483 386.856 50.3325C396.08 45.0635 403.93 37.7274 409.778 28.9118C415.625 20.0963 419.307 10.0464 420.529 -0.43255C420.667 -1.08879 420.668 -1.76619 420.532 -2.42284C420.396 -3.0795 420.125 -3.70144 419.736 -4.25018C419.347 -4.79892 418.849 -5.26279 418.272 -5.61308C417.695 -5.96338 417.051 -6.19265 416.381 -6.28671C415.711 -6.38076 415.029 -6.33761 414.376 -6.15992C413.724 -5.98222 413.115 -5.67376 412.588 -5.25363C412.06 -4.8335 411.626 -4.31063 411.311 -3.71737C410.995 -3.12411 410.806 -2.47309 410.755 -1.80458C409.737 7.19915 406.595 15.8394 401.584 23.4184C396.573 30.9975 389.834 37.303 381.909 41.8259C373.03 46.8816 362.968 49.5423 352.727 49.5423C342.486 49.5423 332.424 46.8816 323.545 41.8259C315.628 37.2985 308.896 30.991 303.892 23.4122C298.888 15.8334 295.753 7.19553 294.738 -1.80458C294.589 -3.05578 293.959 -4.20189 292.979 -5.00487C291.999 -5.80786 290.744 -6.20602 289.476 -6.11666V-6.15586ZM322.358 -3.25501C321.584 -3.2027 320.833 -2.97079 320.166 -2.578C319.5 -2.1852 318.935 -1.64255 318.519 -0.993862C318.103 -0.345177 317.847 0.391346 317.772 1.15621C317.696 1.92107 317.803 2.69282 318.084 3.40913C320.939 11.7167 326.748 18.7114 334.426 23.0879C339.994 26.259 346.305 27.9278 352.727 27.9278C359.15 27.9278 365.46 26.259 371.028 23.0879C378.721 18.6922 384.531 11.6675 387.37 3.33072C387.647 2.71303 387.792 2.04522 387.796 1.36929C387.8 0.693365 387.663 0.0239315 387.393 -0.596914C387.123 -1.21776 386.727 -1.77659 386.228 -2.23827C385.73 -2.69995 385.141 -3.05448 384.497 -3.27959C383.854 -3.5047 383.17 -3.59551 382.49 -3.54631C381.81 -3.49711 381.147 -3.30897 380.543 -2.99371C379.94 -2.67845 379.408 -2.24289 378.983 -1.71443C378.558 -1.18596 378.247 -0.576015 378.071 0.0770606C376.002 6.20295 371.736 11.3638 366.082 14.5813C362.019 16.8961 357.414 18.1143 352.727 18.1143C348.04 18.1143 343.435 16.8961 339.372 14.5813C333.718 11.3638 329.452 6.20295 327.383 0.0770606C327.042 -0.958106 326.364 -1.85143 325.454 -2.4619C324.544 -3.07237 323.454 -3.36522 322.358 -3.29421V-3.25501ZM306.055 -2.9414C305.328 -2.89081 304.621 -2.68148 303.984 -2.32839C303.348 -1.97531 302.799 -1.48721 302.375 -0.89905C301.951 -0.310893 301.664 0.362768 301.535 1.07369C301.405 1.78461 301.435 2.51519 301.623 3.21312C303.214 10.2037 306.25 16.7915 310.541 22.5605C314.832 28.3294 320.284 33.1541 326.552 36.7298C334.524 41.2622 343.555 43.6471 352.747 43.6471C361.938 43.6471 370.97 41.2622 378.942 36.7298C385.21 33.1541 390.662 28.3294 394.953 22.5605C399.243 16.7915 402.28 10.2037 403.87 3.21312C404.185 1.94992 403.981 0.614561 403.302 -0.499202C402.623 -1.61296 401.525 -2.41389 400.25 -2.7258C398.975 -3.0377 397.627 -2.83502 396.503 -2.16235C395.378 -1.48968 394.57 -0.402123 394.255 0.861075C392.981 6.56573 390.522 11.945 387.034 16.656C383.546 21.367 379.105 25.3064 373.996 28.2232C367.525 31.9104 360.192 33.8509 352.727 33.8509C345.263 33.8509 337.929 31.9104 331.459 28.2232C326.353 25.3107 321.915 21.3774 318.427 16.6734C314.939 11.9695 312.478 6.59787 311.199 0.900276C310.946 -0.243224 310.289 -1.25926 309.345 -1.96393C308.401 -2.6686 307.234 -3.01534 306.055 -2.9414V-2.9414ZM429.907 4.27154C428.862 4.26862 427.843 4.59366 426.996 5.20003C426.149 5.80641 425.518 6.66296 425.192 7.64682C424.867 8.63068 424.865 9.6913 425.186 10.6765C425.507 11.6618 426.134 12.521 426.979 13.1309C428.68 14.3853 430.342 15.7182 431.885 17.1686V4.66355C431.292 4.38915 430.619 4.23234 429.907 4.23234V4.27154ZM117.31 4.27154C116.123 4.27154 115.015 4.66355 114.144 5.40837C105.607 11.7003 98.6738 19.8834 93.8987 29.3039C89.1236 38.7243 86.6391 49.1207 86.6439 59.6622C86.6661 71.5314 89.8268 83.1876 95.8113 93.47C101.796 103.752 110.395 112.302 120.753 118.267C129.962 123.55 140.293 126.621 150.916 127.233C161.54 127.846 172.161 125.984 181.927 121.795C182.529 121.554 183.078 121.196 183.542 120.744C184.005 120.292 184.374 119.754 184.627 119.161C184.881 118.567 185.014 117.93 185.019 117.286C185.024 116.642 184.901 116.003 184.657 115.406C184.413 114.809 184.052 114.265 183.596 113.806C183.139 113.347 182.596 112.981 181.997 112.73C181.398 112.479 180.755 112.347 180.105 112.342C179.455 112.337 178.81 112.459 178.207 112.701C169.835 116.325 160.72 117.947 151.599 117.436C142.477 116.926 133.605 114.296 125.699 109.761C116.845 104.66 109.494 97.3515 104.378 88.5619C99.2614 79.7724 96.5578 69.8086 96.5362 59.6622C96.5312 50.6089 98.6735 41.6811 102.791 33.5987C106.908 25.5162 112.884 18.5052 120.238 13.1309C121.085 12.519 121.714 11.6563 122.034 10.6672C122.354 9.67806 122.349 8.61379 122.019 7.62798C121.689 6.64216 121.051 5.78581 120.197 5.18252C119.344 4.57923 118.319 4.26022 117.27 4.27154H117.31ZM-42.9453 4.70275V17.2078C-37.01 22.6212 -32.2745 29.1971 -29.039 36.5188C-25.8036 43.8404 -24.1387 51.7481 -24.15 59.7406C-24.15 76.009 -31.1537 91.4149 -42.9453 102.273V114.896C-34.0883 108.618 -26.867 100.341 -21.8785 90.7503C-16.8901 81.1594 -14.2778 70.5299 -14.2577 59.7406C-14.2468 49.1925 -16.7283 38.7883 -21.5036 29.3606C-26.2789 19.9329 -33.2155 11.7434 -41.7583 5.44757C-42.1186 5.15839 -42.5182 4.92086 -42.9453 4.74195V4.70275ZM233.921 7.72121C224.751 7.7175 215.742 10.1109 207.805 14.6597C199.851 19.2409 193.248 25.8061 188.652 33.7017C184.056 41.5973 181.628 50.5479 181.61 59.6622C181.602 66.8258 183.092 73.9134 185.987 80.4781C188.881 87.0428 193.117 92.9422 198.427 97.8046C199.119 98.4838 199.997 98.9456 200.953 99.1322C201.908 99.3188 202.898 99.2218 203.798 98.8534C204.698 98.4851 205.468 97.8617 206.012 97.0614C206.556 96.2612 206.849 95.3197 206.855 94.3549C206.855 92.9045 206.262 91.6109 205.272 90.7485C200.923 86.7991 197.452 81.9951 195.081 76.6427C192.71 71.2904 191.491 65.5073 191.502 59.6622C191.52 52.2707 193.491 45.0126 197.219 38.6098C200.947 32.2069 206.302 26.8826 212.751 23.1663C217.85 20.2349 223.51 18.3896 229.369 17.7483C235.229 17.1071 241.159 17.684 246.781 19.4422C248.04 19.8061 249.394 19.6595 250.544 19.0346C251.694 18.4097 252.546 17.3578 252.914 16.1102C253.281 14.8626 253.133 13.5215 252.502 12.382C251.872 11.2425 250.81 10.3979 249.55 10.0341C244.49 8.47485 239.22 7.68189 233.921 7.68201V7.72121ZM-3.25741 7.72121C-8.55718 7.72109 -13.8266 8.51405 -18.8873 10.0733C-19.5108 10.2534 -20.0924 10.5535 -20.5989 10.9564C-21.1054 11.3593 -21.5269 11.857 -21.8392 12.4212C-22.1515 12.9854 -22.3486 13.6051 -22.4192 14.2448C-22.4898 14.8844 -22.4325 15.5316 -22.2506 16.1494C-22.0688 16.7671 -21.7659 17.3433 -21.3592 17.8451C-20.9526 18.3469 -20.4501 18.7644 -19.8806 19.0738C-19.3111 19.3832 -18.6856 19.5785 -18.0399 19.6484C-17.3942 19.7184 -16.741 19.6616 -16.1174 19.4814C-10.4985 17.7174 -4.56983 17.1339 1.28963 17.7684C7.14908 18.4029 12.8105 20.2414 17.9121 23.1663C24.3674 26.886 29.726 32.2165 33.4542 38.6268C37.1824 45.037 39.1499 52.3032 39.1608 59.7014C39.1662 65.5399 37.9447 71.3155 35.574 76.6607C33.2032 82.0059 29.7352 86.8036 25.3907 90.7485C24.883 91.1836 24.4701 91.7166 24.177 92.3149C23.8839 92.9133 23.7169 93.5645 23.686 94.2288C23.6551 94.8932 23.7611 95.5569 23.9975 96.1793C24.2338 96.8018 24.5956 97.3701 25.0608 97.8496C25.526 98.3292 26.0848 98.7098 26.7033 98.9685C27.3218 99.2271 27.9869 99.3583 28.6583 99.3541C29.3296 99.3499 29.993 99.2104 30.6081 98.944C31.2232 98.6776 31.7772 98.2899 32.2362 97.8046C37.5463 92.9422 41.782 87.0428 44.6764 80.4781C47.5708 73.9134 49.061 66.8258 49.0531 59.6622C49.0307 50.5441 46.5968 41.5909 41.9938 33.695C37.3908 25.799 30.7795 19.2359 22.8187 14.6597C14.9084 10.1105 5.92872 7.70398 -3.21784 7.68201L-3.25741 7.72121ZM424.407 20.1087C423.413 20.1135 422.444 20.4149 421.625 20.9734C420.807 21.5319 420.177 22.3217 419.819 23.2398C419.46 24.1579 419.389 25.1618 419.614 26.1206C419.84 27.0794 420.352 27.9487 421.083 28.6152C425.833 32.9515 429.526 38.2996 431.885 44.2563V25.5968C430.64 24.1815 429.32 22.8336 427.928 21.5591C427.468 21.0985 426.919 20.7331 426.314 20.4841C425.71 20.2351 425.061 20.1075 424.407 20.1087V20.1087ZM122.771 20.1087C121.425 20.1087 120.159 20.6575 119.288 21.5591C113.983 26.417 109.75 32.3101 106.856 38.8677C103.962 45.4252 102.469 52.5052 102.472 59.6622C102.483 68.7832 104.908 77.7419 109.504 85.645C114.1 93.5481 120.707 100.119 128.666 104.704C134.922 108.296 141.863 110.561 149.049 111.358C156.235 112.154 163.509 111.463 170.412 109.33C171.368 109.085 172.228 108.563 172.881 107.831C173.535 107.098 173.953 106.188 174.08 105.219C174.208 104.249 174.04 103.264 173.598 102.39C173.155 101.516 172.459 100.793 171.599 100.313C171.003 99.9804 170.343 99.7736 169.662 99.7061C168.981 99.6387 168.293 99.712 167.642 99.9214C162.02 101.68 156.09 102.257 150.231 101.615C144.371 100.974 138.711 99.1288 133.613 96.1974C127.157 92.4777 121.799 87.1472 118.07 80.7369C114.342 74.3267 112.375 67.0604 112.364 59.6622C112.358 53.8238 113.58 48.0482 115.951 42.703C118.321 37.3578 121.789 32.5601 126.134 28.6152C126.868 27.9465 127.381 27.0736 127.605 26.1111C127.829 25.1486 127.755 24.1413 127.391 23.2216C127.027 22.3018 126.391 21.5123 125.567 20.9568C124.742 20.4013 123.768 20.1057 122.771 20.1087V20.1087ZM234.751 23.4015C228.091 23.2695 221.521 24.9509 215.758 28.2624C210.204 31.4574 205.591 36.0367 202.377 41.5452C199.163 47.0538 197.46 53.2997 197.438 59.6622C197.438 68.8352 200.841 77.2242 206.499 83.5747C206.908 84.101 207.421 84.5394 208.006 84.8633C208.591 85.1873 209.236 85.39 209.903 85.4592C210.57 85.5284 211.244 85.4626 211.884 85.2658C212.524 85.069 213.117 84.7453 213.628 84.3145C214.138 83.8836 214.554 83.3545 214.851 82.7593C215.149 82.1641 215.321 81.5152 215.357 80.8521C215.394 80.189 215.294 79.5255 215.063 78.9018C214.833 78.2781 214.477 77.7074 214.017 77.2242C209.676 72.386 207.282 66.1356 207.29 59.6622C207.29 50.2541 212.434 41.4731 220.665 36.769C226.317 33.5183 232.98 32.4438 239.381 33.7505C240.02 33.8664 240.676 33.8563 241.311 33.721C241.947 33.5857 242.549 33.3278 243.083 32.962C243.618 32.5961 244.075 32.1296 244.427 31.5889C244.78 31.0482 245.021 30.444 245.138 29.8108C245.255 29.1777 245.245 28.5278 245.109 27.8985C244.972 27.2692 244.712 26.6727 244.342 26.1431C243.973 25.6134 243.502 25.161 242.956 24.8117C242.411 24.4624 241.801 24.223 241.162 24.1071C239.05 23.6839 236.905 23.4478 234.751 23.4015V23.4015ZM-4.12793 23.4015C-6.26467 23.4407 -8.40141 23.6759 -10.4986 24.1071C-11.1377 24.223 -11.7476 24.4624 -12.2933 24.8117C-12.8391 25.161 -13.31 25.6134 -13.6793 26.1431C-14.0486 26.6727 -14.3089 27.2692 -14.4455 27.8985C-14.5821 28.5278 -14.5922 29.1777 -14.4753 29.8108C-14.3584 30.444 -14.1167 31.0482 -13.7641 31.5889C-13.4115 32.1296 -12.9548 32.5961 -12.4202 32.962C-11.8856 33.3278 -11.2835 33.5857 -10.6483 33.721C-10.013 33.8563 -9.35711 33.8664 -8.71797 33.7505C-2.32942 32.4538 4.31739 33.528 9.95871 36.769C14.0171 39.0994 17.3879 42.4434 19.7346 46.4672C22.0814 50.4911 23.3221 55.0542 23.3331 59.7014C23.3331 66.4048 20.8007 72.5593 16.6063 77.2634C15.9744 77.9684 15.5611 78.8391 15.4162 79.771C15.2713 80.7029 15.4009 81.6564 15.7893 82.5172C16.1778 83.3779 16.8087 84.1094 17.6064 84.6238C18.404 85.1382 19.3345 85.4136 20.2863 85.4171C21.869 85.4171 23.254 84.7115 24.1245 83.5747C29.9963 76.9678 33.2324 68.4651 33.2254 59.6622C33.203 53.2997 31.5001 47.0538 28.2861 41.5452C25.0721 36.0367 20.4588 31.4574 14.9049 28.2624C9.14202 24.9509 2.57241 23.2695 -4.08837 23.4015H-4.12793ZM-42.9453 25.5968V44.1779C-38.9699 54.1252 -38.9699 65.1993 -42.9453 75.1465L-42.9453 93.7669C-34.6613 84.2989 -30.0961 72.192 -30.0853 59.6622C-30.0796 47.153 -34.6481 35.0652 -42.9453 25.636V25.5968ZM415.979 33.9465C415.027 33.95 414.096 34.2255 413.299 34.7399C412.501 35.2543 411.87 35.9857 411.482 36.8465C411.093 37.7073 410.964 38.6608 411.108 39.5927C411.253 40.5246 411.667 41.3953 412.299 42.1003C416.64 46.9384 419.034 53.1889 419.025 59.6622C419.025 69.0704 413.881 77.8906 405.651 82.5947C400.01 85.8357 393.363 86.9099 386.974 85.6132C386.335 85.4948 385.679 85.5022 385.042 85.6351C384.406 85.7681 383.803 86.0238 383.266 86.3879C382.73 86.7519 382.271 87.217 381.916 87.7567C381.561 88.2964 381.317 88.9 381.197 89.5332C381.078 90.1664 381.085 90.8167 381.219 91.447C381.354 92.0773 381.612 92.6753 381.979 93.2068C382.347 93.7382 382.816 94.1928 383.361 94.5445C383.906 94.8962 384.515 95.1381 385.154 95.2565C393.582 96.903 402.604 95.6486 410.597 91.1013C416.157 87.903 420.774 83.3175 423.988 77.8015C427.203 72.2855 428.902 66.0314 428.918 59.6622C428.918 50.5285 425.475 42.1395 419.817 35.7498C419.357 35.1907 418.777 34.7392 418.121 34.4275C417.464 34.1158 416.746 33.9516 416.018 33.9465H415.979ZM131.199 33.9465C129.656 33.9465 128.271 34.6521 127.4 35.7498C121.528 42.3567 118.292 50.8594 118.299 59.6622C118.311 66.0276 120.004 72.2791 123.212 77.7948C126.419 83.3104 131.028 87.898 136.58 91.1013C144.265 95.5154 153.315 96.9933 162.023 95.2565C162.662 95.1407 163.272 94.9013 163.818 94.552C164.364 94.2027 164.835 93.7503 165.204 93.2206C165.573 92.691 165.834 92.0945 165.97 91.4652C166.107 90.8358 166.117 90.186 166 89.5528C165.883 88.9196 165.641 88.3155 165.289 87.7748C164.936 87.2341 164.479 86.7675 163.945 86.4017C163.41 86.0359 162.808 85.778 162.173 85.6427C161.538 85.5074 160.882 85.4973 160.243 85.6132C153.841 86.9199 147.179 85.8454 141.526 82.5947C137.475 80.2593 134.112 76.9132 131.773 72.8897C129.433 68.8662 128.199 64.3056 128.192 59.6622C128.192 52.9589 130.724 46.8044 134.918 42.1003C135.553 41.3928 135.966 40.5185 136.11 39.583C136.253 38.6475 136.121 37.6909 135.727 36.8286C135.334 35.9664 134.697 35.2354 133.893 34.7239C133.09 34.2125 132.154 33.9425 131.199 33.9465V33.9465ZM234.435 39.0818C230.755 39.0034 227.035 39.8658 223.672 41.8259C220.516 43.6399 217.895 46.241 216.07 49.3702C214.244 52.4995 213.277 56.0478 213.265 59.6622C213.249 63.9294 214.577 68.0954 217.064 71.5793C217.814 72.6501 218.963 73.3818 220.258 73.6134C221.553 73.845 222.888 73.5575 223.969 72.8141C225.05 72.0707 225.788 70.9324 226.022 69.6496C226.256 68.3667 225.966 67.0444 225.215 65.9736C224.324 64.749 223.701 63.3531 223.386 61.8757C223.072 60.3983 223.073 58.872 223.39 57.3951C223.707 55.9182 224.332 54.5233 225.226 53.3002C226.119 52.0771 227.261 51.0528 228.579 50.2933C230.555 49.1672 232.84 48.6871 235.108 48.9212C235.76 48.9884 236.42 48.9264 237.048 48.7387C237.676 48.5511 238.26 48.2415 238.766 47.8281C239.272 47.4146 239.69 46.9056 239.996 46.3306C240.301 45.7555 240.488 45.126 240.546 44.4787C240.604 43.8313 240.531 43.179 240.332 42.5598C240.133 41.9406 239.811 41.3669 239.386 40.8719C238.961 40.377 238.441 39.9707 237.856 39.6769C237.271 39.383 236.632 39.2074 235.978 39.1602C235.451 39.1183 234.924 39.0922 234.395 39.0818H234.435ZM-3.77181 39.0818L-5.35458 39.1602C-6.00412 39.2169 -6.63604 39.3997 -7.21426 39.6982C-7.79248 39.9968 -8.30568 40.4053 -8.72456 40.9004C-9.57051 41.9002 -9.98091 43.192 -9.86547 44.4915C-9.75004 45.7911 -9.11821 46.9921 -8.109 47.8301C-7.09979 48.6682 -5.79586 49.0748 -4.48406 48.9604C-2.40879 48.7775 -0.324011 49.1865 1.52428 50.1391C3.37257 51.0917 4.90724 52.5482 5.9472 54.3368C6.98715 56.1253 7.48899 58.1713 7.39349 60.2332C7.298 62.2951 6.60916 64.2869 5.40825 65.9736C5.03671 66.5038 4.77423 67.1013 4.6358 67.7321C4.49736 68.3628 4.48569 69.0144 4.60143 69.6496C4.83518 70.9324 5.57375 72.0707 6.65468 72.8141C7.7356 73.5575 9.07033 73.845 10.3652 73.6134C11.6601 73.3818 12.8092 72.6501 13.5595 71.5793C16.0608 68.1 17.4026 63.9337 17.3977 59.6622C17.3872 56.0575 16.4247 52.5183 14.6061 49.3962C12.7874 46.274 10.1757 43.6777 7.03059 41.8651C3.7634 39.9935 0.0410429 39.0444 -3.73224 39.121L-3.77181 39.0818ZM405.137 45.5892C404.228 45.5925 403.338 45.8438 402.564 46.3154C401.79 46.787 401.162 47.4607 400.749 48.2626C400.336 49.0645 400.154 49.9636 400.223 50.8612C400.292 51.7588 400.609 52.6202 401.14 53.3509C402.032 54.5755 402.655 55.9714 402.969 57.4488C403.283 58.9262 403.282 60.4525 402.965 61.9294C402.649 63.4063 402.023 64.8012 401.13 66.0243C400.236 67.2474 399.094 68.2717 397.777 69.0312C395.789 70.1655 393.489 70.6458 391.208 70.4033C390.559 70.3492 389.905 70.4224 389.284 70.6187C388.663 70.8151 388.087 71.1306 387.589 71.5474C386.584 72.3892 385.957 73.5922 385.847 74.8917C385.736 76.1913 386.152 77.481 387.001 78.4772C387.851 79.4733 389.065 80.0943 390.377 80.2034C394.532 80.5563 398.805 79.733 402.683 77.4986C405.839 75.6846 408.46 73.0835 410.286 69.9543C412.112 66.825 413.078 63.2766 413.09 59.6622C413.095 55.3908 411.753 51.2244 409.252 47.7452C408.797 47.0788 408.184 46.5336 407.466 46.1576C406.748 45.7816 405.948 45.5863 405.137 45.5892ZM142.041 45.5892C140.339 45.5892 138.875 46.4516 137.926 47.7452C135.438 51.2291 134.11 55.3951 134.127 59.6622C134.127 66.9928 138.084 73.8529 144.494 77.4986C148.227 79.6429 152.544 80.5751 156.84 80.1642C157.494 80.1171 158.132 79.9415 158.717 79.6476C159.302 79.3537 159.823 78.9475 160.248 78.4526C160.673 77.9576 160.994 77.3838 161.193 76.7646C161.393 76.1454 161.465 75.4932 161.408 74.8458C161.35 74.1985 161.163 73.5689 160.857 72.9939C160.552 72.4189 160.133 71.9098 159.627 71.4964C159.121 71.083 158.537 70.7734 157.909 70.5857C157.281 70.3981 156.622 70.336 155.969 70.4033C153.894 70.5862 151.809 70.1772 149.961 69.2246C148.113 68.272 146.578 66.8154 145.538 65.0269C144.498 63.2383 143.996 61.1924 144.092 59.1305C144.187 57.0686 144.876 55.0768 146.077 53.3901C146.621 52.6567 146.948 51.7877 147.021 50.8805C147.094 49.9733 146.911 49.0638 146.492 48.2539C146.073 47.444 145.435 46.7657 144.649 46.2951C143.862 45.8244 142.959 45.58 142.041 45.5892V45.5892ZM154.901 54.7621C153.589 54.7621 152.331 55.2784 151.403 56.1974C150.476 57.1163 149.955 58.3627 149.955 59.6622C149.955 60.9618 150.476 62.2082 151.403 63.1271C152.331 64.0461 153.589 64.5623 154.901 64.5623C156.213 64.5623 157.471 64.0461 158.398 63.1271C159.326 62.2082 159.847 60.9618 159.847 59.6622C159.847 58.3627 159.326 57.1163 158.398 56.1974C157.471 55.2784 156.213 54.7621 154.901 54.7621ZM234.039 54.7621C232.727 54.7621 231.469 55.2784 230.542 56.1974C229.614 57.1163 229.093 58.3627 229.093 59.6622C229.093 60.9618 229.614 62.2082 230.542 63.1271C231.469 64.0461 232.727 64.5623 234.039 64.5623C235.351 64.5623 236.609 64.0461 237.537 63.1271C238.464 62.2082 238.985 60.9618 238.985 59.6622C238.985 58.3627 238.464 57.1163 237.537 56.1974C236.609 55.2784 235.351 54.7621 234.039 54.7621ZM-3.73224 54.7621C-4.38178 54.8085 -5.01575 54.9811 -5.59795 55.2702C-6.18014 55.5592 -6.69917 55.959 -7.1254 56.4468C-7.55162 56.9346 -7.87669 57.5008 -8.08205 58.113C-8.28741 58.7252 -8.36904 59.3716 -8.32227 60.015C-8.27551 60.6585 -8.10126 61.2866 -7.80949 61.8634C-7.51771 62.4402 -7.11412 62.9543 -6.62176 63.3766C-6.1294 63.7989 -5.55791 64.1209 -4.93992 64.3244C-4.32193 64.5278 -3.66953 64.6087 -3.02 64.5623C-1.7082 64.4688 -0.487642 63.8628 0.373155 62.8777C1.23395 61.8925 1.66448 60.609 1.57003 59.3094C1.47558 58.0098 0.863891 56.8007 -0.130479 55.9479C-1.12485 55.0951 -2.42044 54.6686 -3.73224 54.7621ZM392.672 54.7621C392.023 54.7158 391.37 54.7967 390.752 55.0001C390.134 55.2036 389.563 55.5256 389.07 55.9479C388.578 56.3701 388.175 56.8843 387.883 57.4611C387.591 58.0379 387.417 58.6659 387.37 59.3094C387.323 59.9529 387.405 60.5992 387.61 61.2115C387.816 61.8237 388.141 62.3899 388.567 62.8777C388.993 63.3654 389.512 63.7653 390.094 64.0543C390.676 64.3434 391.31 64.516 391.96 64.5623C393.272 64.6559 394.567 64.2294 395.562 63.3766C396.556 62.5238 397.168 61.3146 397.262 60.015C397.357 58.7155 396.926 57.4319 396.065 56.4468C395.205 55.4617 393.984 54.8557 392.672 54.7621V54.7621ZM273.608 59.9758C256.874 59.9622 240.718 66.0467 228.219 77.0707C215.72 88.0946 207.749 103.288 205.826 119.757C205.66 120.678 205.763 121.627 206.124 122.491C206.485 123.356 207.088 124.1 207.862 124.636C208.636 125.172 209.548 125.477 210.492 125.516C211.436 125.554 212.37 125.324 213.186 124.853C213.855 124.463 214.422 123.923 214.842 123.276C215.261 122.629 215.521 121.894 215.6 121.129C216.614 112.129 219.75 103.491 224.754 95.9123C229.758 88.3335 236.49 82.026 244.406 77.4986C253.285 72.4428 263.348 69.7822 273.589 69.7822C283.83 69.7822 293.892 72.4428 302.771 77.4986C310.688 82.026 317.42 88.3335 322.423 95.9123C327.427 103.491 330.563 112.129 331.577 121.129C331.761 122.418 332.454 123.582 333.504 124.365C334.554 125.148 335.875 125.486 337.176 125.304C338.478 125.122 339.653 124.435 340.443 123.395C341.233 122.355 341.574 121.046 341.391 119.757C339.467 103.288 331.497 88.0946 318.998 77.0707C306.499 66.0467 290.343 59.9622 273.608 59.9758V59.9758ZM431.885 75.0681C428.362 83.9584 421.904 91.4055 413.565 96.1974C408.463 99.1223 402.802 100.961 396.942 101.595C391.083 102.23 385.154 101.646 379.535 99.8822C378.585 99.5927 377.569 99.5933 376.62 99.884C375.67 100.175 374.831 100.742 374.212 101.512C373.593 102.282 373.222 103.219 373.148 104.201C373.074 105.183 373.301 106.164 373.798 107.017C374.12 107.58 374.552 108.074 375.068 108.471C375.584 108.868 376.174 109.16 376.805 109.33C386.522 112.328 396.912 112.449 406.697 109.677C416.482 106.905 425.237 101.362 431.885 93.7277V75.0681V75.0681ZM273.608 75.6562C261.714 75.6365 250.168 79.6335 240.874 86.9878C231.58 94.3421 225.094 104.615 222.485 116.111C222.24 117.045 222.278 118.029 222.595 118.94C222.912 119.852 223.493 120.651 224.266 121.237C225.04 121.823 225.97 122.17 226.941 122.234C227.912 122.299 228.881 122.078 229.726 121.599C230.318 121.267 230.835 120.817 231.244 120.277C231.652 119.737 231.944 119.12 232.1 118.463C233.374 112.759 235.833 107.38 239.321 102.669C242.809 97.9575 247.25 94.0181 252.36 91.1013C258.825 87.4214 266.152 85.4849 273.608 85.4849C281.065 85.4849 288.392 87.4214 294.857 91.1013C299.967 94.0181 304.408 97.9575 307.896 102.669C311.384 107.38 313.843 112.759 315.117 118.463C315.337 119.423 315.844 120.295 316.571 120.965C317.299 121.635 318.213 122.072 319.195 122.22C320.177 122.368 321.182 122.22 322.077 121.795C322.973 121.369 323.719 120.687 324.217 119.835C324.93 118.659 325.048 117.327 324.732 116.111C322.13 104.607 315.648 94.3259 306.353 86.9639C297.059 79.6018 285.508 75.5993 273.608 75.617V75.6562ZM273.608 91.3365C265.954 91.319 258.489 93.6868 252.268 98.1049C246.047 102.523 241.386 108.768 238.946 115.955C238.728 116.562 238.632 117.206 238.665 117.85C238.698 118.494 238.859 119.125 239.138 119.708C239.417 120.29 239.81 120.812 240.293 121.245C240.776 121.677 241.34 122.01 241.953 122.227C242.566 122.443 243.216 122.537 243.866 122.505C244.516 122.472 245.154 122.313 245.741 122.036C246.329 121.759 246.856 121.371 247.293 120.892C247.729 120.414 248.066 119.855 248.284 119.247C250.335 113.113 254.587 107.938 260.234 104.704C264.297 102.389 268.902 101.171 273.589 101.171C278.276 101.171 282.88 102.389 286.943 104.704C292.597 107.921 296.863 113.082 298.933 119.208C299.368 120.435 300.278 121.44 301.461 122.003C302.645 122.565 304.006 122.639 305.244 122.207C306.482 121.776 307.497 120.874 308.065 119.702C308.632 118.529 308.707 117.181 308.271 115.955C305.837 108.76 301.179 102.507 294.958 98.0816C288.737 93.6561 281.267 91.2825 273.608 91.2973V91.3365ZM431.885 102.195C423.567 109.82 413.184 114.875 402.009 116.741C390.834 118.607 379.352 117.203 368.97 112.701C368.017 112.292 366.957 112.192 365.942 112.413C364.928 112.635 364.009 113.167 363.317 113.935C362.625 114.703 362.195 115.668 362.088 116.692C361.98 117.715 362.201 118.747 362.718 119.639C363.295 120.634 364.205 121.397 365.29 121.795C376.057 126.414 387.846 128.199 399.513 126.977C411.181 125.754 422.332 121.566 431.885 114.818V102.195ZM273.608 107.056C269.638 107.054 265.75 108.178 262.405 110.297C259.06 112.416 256.398 115.441 254.734 119.012C254.456 119.594 254.296 120.224 254.264 120.867C254.232 121.51 254.328 122.153 254.547 122.759C254.765 123.365 255.102 123.922 255.538 124.399C255.974 124.876 256.501 125.264 257.088 125.539C257.675 125.815 258.312 125.973 258.961 126.005C259.609 126.036 260.258 125.941 260.87 125.725C261.482 125.508 262.045 125.174 262.526 124.742C263.008 124.31 263.399 123.788 263.677 123.207C264.587 121.207 266.13 119.443 268.148 118.267C269.47 117.516 270.936 117.047 272.451 116.89C273.967 116.734 275.499 116.893 276.949 117.359C278.398 117.824 279.734 118.585 280.869 119.592C282.004 120.599 282.914 121.83 283.54 123.207C283.92 124.024 284.519 124.723 285.272 125.225C286.026 125.728 286.904 126.015 287.812 126.055C288.719 126.096 289.62 125.888 290.416 125.455C291.212 125.021 291.873 124.379 292.325 123.599C293.156 122.148 293.195 120.463 292.483 119.012C290.827 115.435 288.167 112.405 284.82 110.285C281.473 108.165 277.581 107.044 273.608 107.056ZM115.688 122.736C115.038 122.69 114.386 122.771 113.768 122.974C113.15 123.178 112.578 123.5 112.086 123.922C111.594 124.344 111.19 124.858 110.898 125.435C110.606 126.012 110.432 126.64 110.385 127.284C110.339 127.927 110.42 128.573 110.626 129.186C110.831 129.798 111.156 130.364 111.582 130.852C112.009 131.34 112.528 131.739 113.11 132.028C113.692 132.318 114.326 132.49 114.975 132.536C116.287 132.63 117.583 132.204 118.577 131.351C119.572 130.498 120.183 129.289 120.278 127.989C120.372 126.69 119.942 125.406 119.081 124.421C118.22 123.436 116.999 122.83 115.688 122.736V122.736ZM273.252 122.736C272.581 122.749 271.919 122.897 271.307 123.172C270.696 123.446 270.147 123.841 269.694 124.332C269.241 124.824 268.894 125.402 268.674 126.03C268.454 126.659 268.366 127.325 268.414 127.989C268.463 128.652 268.647 129.299 268.956 129.89C269.265 130.481 269.692 131.003 270.211 131.425C270.731 131.847 271.331 132.159 271.977 132.344C272.622 132.528 273.298 132.58 273.965 132.497C275.276 132.404 276.497 131.798 277.358 130.813C278.219 129.827 278.649 128.544 278.555 127.244C278.46 125.945 277.848 124.736 276.854 123.883C275.86 123.03 274.564 122.604 273.252 122.697V122.736ZM233.525 127.911C224.407 127.976 215.394 129.842 207.013 133.399C205.791 133.882 204.812 134.827 204.293 136.025C203.773 137.224 203.756 138.577 204.244 139.789C204.732 141 205.685 141.969 206.895 142.484C208.104 142.999 209.471 143.016 210.693 142.533C219.065 138.909 228.18 137.287 237.302 137.797C246.423 138.308 255.295 140.937 263.202 145.473C272.063 150.568 279.421 157.875 284.545 166.665C289.669 175.455 292.378 185.421 292.404 195.571C292.404 204.628 290.256 213.558 286.132 221.641C282.008 229.723 276.024 236.733 268.662 242.103C267.623 242.908 266.95 244.09 266.79 245.388C266.631 246.685 266.998 247.992 267.812 249.022C268.625 250.051 269.818 250.718 271.127 250.876C272.437 251.034 273.757 250.67 274.796 249.864C283.338 243.569 290.275 235.379 295.05 225.951C299.826 216.524 302.307 206.119 302.296 195.571C302.27 183.698 299.103 172.04 293.112 161.757C287.12 151.474 278.513 142.927 268.148 136.966C257.645 130.938 245.702 127.811 233.564 127.911H233.525ZM-2.86172 127.911C-17.2263 127.784 -31.2611 132.176 -42.9453 140.455V153.078C-34.627 145.453 -24.2441 140.398 -13.069 138.531C-1.89381 136.665 9.5881 138.07 19.9697 142.572C20.9281 142.99 21.9957 143.096 23.0188 142.875C24.0419 142.654 24.9677 142.116 25.6629 141.341C26.3581 140.565 26.7867 139.59 26.8871 138.558C26.9876 137.525 26.7545 136.487 26.2217 135.594C25.6409 134.612 24.7307 133.863 23.6497 133.477C15.274 129.894 6.26108 128.002 -2.86172 127.911ZM100.533 129.165C99.7243 129.224 98.9428 129.478 98.2569 129.906C97.571 130.333 97.0018 130.922 96.5992 131.619C96.1967 132.316 95.9732 133.1 95.9484 133.902C95.9236 134.705 96.0983 135.501 96.457 136.221C98.248 140.11 101.223 143.345 104.964 145.473C108.12 147.264 111.694 148.207 115.332 148.207C118.969 148.207 122.543 147.264 125.699 145.473C129.44 143.345 132.415 140.11 134.206 136.221C134.525 135.635 134.719 134.99 134.777 134.326C134.836 133.663 134.757 132.994 134.546 132.362C134.335 131.729 133.996 131.146 133.549 130.648C133.103 130.15 132.559 129.747 131.95 129.464C131.342 129.181 130.681 129.024 130.009 129.003C129.337 128.981 128.667 129.096 128.042 129.34C127.416 129.583 126.847 129.95 126.369 130.419C125.891 130.888 125.515 131.448 125.263 132.066C124.388 133.94 122.99 135.528 121.233 136.64C119.477 137.752 117.436 138.343 115.351 138.343C113.267 138.343 111.226 137.752 109.469 136.64C107.713 135.528 106.314 133.94 105.439 132.066C105.025 131.139 104.33 130.362 103.452 129.843C102.573 129.323 101.553 129.086 100.533 129.165ZM52.0604 129.753C51.3718 129.803 50.7015 129.996 50.0925 130.318C49.4836 130.64 48.9494 131.085 48.5245 131.624C48.0996 132.164 47.7934 132.785 47.6254 133.448C47.4575 134.112 47.4316 134.803 47.5495 135.477C48.7697 145.951 52.447 155.997 58.2871 164.812C64.1273 173.627 71.9684 180.966 81.1833 186.242C91.5709 192.165 103.346 195.282 115.332 195.282C127.317 195.282 139.092 192.165 149.48 186.242C158.695 180.966 166.536 173.627 172.376 164.812C178.216 155.997 181.893 145.951 183.114 135.477C183.252 134.82 183.253 134.143 183.117 133.486C182.98 132.83 182.709 132.208 182.321 131.659C181.932 131.11 181.433 130.646 180.856 130.296C180.279 129.946 179.636 129.716 178.966 129.622C178.296 129.528 177.614 129.571 176.961 129.749C176.309 129.927 175.7 130.235 175.172 130.655C174.645 131.076 174.21 131.598 173.895 132.192C173.58 132.785 173.391 133.436 173.34 134.105C172.326 143.105 169.19 151.742 164.186 159.321C159.182 166.9 152.45 173.208 144.534 177.735C136.14 182.553 126.667 185.221 116.97 185.497C107.274 185.773 97.6607 183.649 89.0017 179.317C80.3427 174.985 72.911 168.582 67.3796 160.688C61.8482 152.793 58.3917 143.656 57.3231 134.105C57.1737 132.853 56.5435 131.707 55.5635 130.904C54.5835 130.101 53.3289 129.703 52.0604 129.792V129.753ZM84.982 132.654C84.2046 132.701 83.4493 132.928 82.7775 133.319C82.1058 133.709 81.5365 134.251 81.1162 134.9C80.6958 135.55 80.4362 136.289 80.3585 137.056C80.2808 137.824 80.3871 138.599 80.6689 139.318C83.5172 147.661 89.3426 154.687 97.0506 159.075C102.614 162.239 108.917 163.904 115.332 163.904C121.746 163.904 128.049 162.239 133.613 159.075C141.321 154.687 147.146 147.661 149.994 139.318C150.212 138.711 150.308 138.067 150.275 137.423C150.242 136.779 150.081 136.148 149.802 135.565C149.523 134.983 149.13 134.46 148.647 134.028C148.164 133.596 147.6 133.262 146.987 133.046C146.374 132.83 145.724 132.735 145.074 132.768C144.424 132.801 143.786 132.96 143.199 133.237C142.611 133.513 142.084 133.902 141.647 134.381C141.211 134.859 140.874 135.418 140.656 136.025C138.596 142.145 134.345 147.305 128.706 150.53C124.638 152.852 120.026 154.074 115.332 154.074C110.637 154.074 106.025 152.852 101.957 150.53C96.3179 147.305 92.0667 142.145 90.0072 136.025C89.6667 134.99 88.9879 134.097 88.0779 133.486C87.1679 132.876 86.0786 132.583 84.982 132.654V132.654ZM68.6399 132.968C67.908 133.017 67.1964 133.227 66.5565 133.582C65.9167 133.938 65.3647 134.43 64.9405 135.023C64.5163 135.616 64.2305 136.295 64.1038 137.01C63.9771 137.726 64.0128 138.461 64.2081 139.161C65.8035 146.145 68.8422 152.725 73.1328 158.487C77.4233 164.249 82.8725 169.068 89.1367 172.639C97.1135 177.179 106.152 179.567 115.351 179.567C124.551 179.567 133.589 177.179 141.566 172.639C147.827 169.059 153.271 164.233 157.555 158.464C161.839 152.695 164.869 146.109 166.455 139.122C166.7 138.189 166.662 137.205 166.345 136.293C166.028 135.381 165.447 134.582 164.674 133.997C163.9 133.411 162.97 133.064 161.999 132.999C161.028 132.935 160.059 133.156 159.214 133.634C158.622 133.967 158.105 134.417 157.696 134.957C157.288 135.496 156.996 136.114 156.84 136.77C155.566 142.475 153.107 147.854 149.619 152.565C146.131 157.276 141.69 161.216 136.58 164.132C130.115 167.812 122.788 169.749 115.332 169.749C107.875 169.749 100.549 167.812 94.0829 164.132C88.9772 161.22 84.5393 157.286 81.0514 152.583C77.5636 147.879 75.102 142.507 73.8234 136.809C73.5697 135.659 72.9061 134.637 71.9541 133.932C71.0022 133.226 69.8257 132.884 68.6399 132.968V132.968ZM354.725 140.141C353.538 140.141 352.43 140.573 351.56 141.278C343.022 147.57 336.089 155.753 331.314 165.174C326.539 174.594 324.054 184.991 324.059 195.532C324.081 207.401 327.242 219.057 333.227 229.34C339.211 239.622 347.81 248.172 358.168 254.137C367.377 259.42 377.708 262.49 388.332 263.103C398.955 263.716 409.576 261.853 419.342 257.665C419.958 257.435 420.521 257.086 420.999 256.637C421.477 256.189 421.859 255.651 422.125 255.054C422.39 254.457 422.532 253.814 422.543 253.162C422.554 252.51 422.433 251.862 422.188 251.257C421.943 250.652 421.579 250.101 421.117 249.637C420.654 249.173 420.103 248.805 419.495 248.555C418.887 248.305 418.235 248.177 417.577 248.18C416.919 248.183 416.268 248.316 415.662 248.571C407.288 252.207 398.167 253.839 389.038 253.335C379.909 252.831 371.028 250.205 363.114 245.67C354.255 240.566 346.9 233.251 341.783 224.454C336.667 215.657 333.966 205.685 333.952 195.532C333.946 186.479 336.089 177.551 340.206 169.469C344.323 161.386 350.299 154.375 357.653 149.001C358.498 148.391 359.125 147.532 359.446 146.546C359.767 145.561 359.765 144.501 359.44 143.517C359.115 142.533 358.483 141.676 357.636 141.07C356.789 140.464 355.77 140.139 354.725 140.141V140.141ZM192.492 140.141C191.436 140.127 190.403 140.447 189.545 141.055C188.686 141.664 188.046 142.528 187.719 143.522C187.392 144.517 187.395 145.589 187.726 146.581C188.058 147.574 188.702 148.436 189.563 149.04C196.917 154.414 202.894 161.425 207.011 169.508C211.128 177.59 213.27 186.518 213.265 195.571C213.24 205.721 210.53 215.688 205.407 224.478C200.283 233.268 192.924 240.574 184.063 245.67C176.157 250.205 167.285 252.835 158.163 253.345C149.042 253.856 139.927 252.234 131.555 248.61C130.601 248.201 129.542 248.101 128.527 248.322C127.512 248.544 126.594 249.076 125.902 249.844C125.21 250.612 124.78 251.577 124.672 252.601C124.565 253.625 124.785 254.656 125.303 255.549C125.867 256.538 126.763 257.301 127.835 257.705C137.601 261.893 148.222 263.755 158.846 263.142C169.469 262.53 179.8 259.459 189.009 254.176C199.374 248.216 207.982 239.669 213.973 229.386C219.965 219.103 223.131 207.444 223.158 195.571C223.169 185.023 220.687 174.619 215.912 165.191C211.136 155.764 204.2 147.574 195.657 141.278C194.765 140.555 193.644 140.167 192.492 140.181V140.141ZM431.885 140.416C423.028 146.694 415.807 154.971 410.819 164.562C405.83 174.153 403.218 184.782 403.198 195.571C403.187 206.119 405.668 216.524 410.444 225.951C415.219 235.379 422.156 243.569 430.698 249.864C431.094 250.178 431.49 250.413 431.885 250.57V238.104C425.952 232.689 421.218 226.113 417.982 218.792C414.747 211.47 413.081 203.563 413.09 195.571C413.09 179.342 420.094 163.897 431.885 153.078V140.416ZM234.158 143.552C228.858 143.552 223.589 144.345 218.528 145.904C217.905 146.084 217.323 146.384 216.816 146.787C216.31 147.19 215.888 147.688 215.576 148.252C214.945 149.391 214.797 150.732 215.165 151.98C215.532 153.228 216.385 154.28 217.535 154.905C218.685 155.529 220.039 155.676 221.298 155.312C226.92 153.554 232.85 152.977 238.709 153.618C244.569 154.259 250.229 156.105 255.327 159.036C261.775 162.761 267.126 168.093 270.847 174.503C274.568 180.913 276.53 188.177 276.537 195.571C276.542 201.41 275.32 207.185 272.95 212.531C270.579 217.876 267.111 222.673 262.766 226.618C262.259 227.053 261.846 227.586 261.553 228.185C261.26 228.783 261.093 229.434 261.062 230.099C261.031 230.763 261.137 231.427 261.373 232.049C261.61 232.672 261.971 233.24 262.437 233.72C262.902 234.199 263.461 234.58 264.079 234.838C264.698 235.097 265.363 235.228 266.034 235.224C266.705 235.22 267.369 235.08 267.984 234.814C268.599 234.547 269.153 234.16 269.612 233.674C274.924 228.82 279.165 222.928 282.066 216.371C284.967 209.813 286.466 202.731 286.468 195.571C286.453 186.447 284.022 177.485 279.419 169.582C274.816 161.678 268.201 155.109 260.234 150.53C252.308 145.989 243.314 143.596 234.158 143.591V143.552ZM-3.49483 143.591C-10.9838 143.594 -18.3842 145.195 -25.192 148.287C-31.9998 151.378 -38.0551 155.887 -42.9453 161.506L-42.9453 180.205C-39.4292 171.3 -32.9713 163.838 -24.6248 159.036C-19.5232 156.111 -13.8618 154.273 -8.0023 153.638C-2.14284 153.004 3.78578 153.587 9.40474 155.351C10.0384 155.564 10.7092 155.648 11.3763 155.597C12.0435 155.545 12.6933 155.36 13.2862 155.053C13.8792 154.746 14.4031 154.323 14.8262 153.809C15.2493 153.296 15.5627 152.702 15.7476 152.065C15.9325 151.428 15.985 150.76 15.9019 150.102C15.8188 149.445 15.6018 148.81 15.264 148.238C14.9263 147.666 14.4749 147.167 13.937 146.773C13.3992 146.378 12.7861 146.096 12.135 145.943C7.07433 144.384 1.80494 143.591 -3.49483 143.591V143.591ZM360.186 155.979C358.841 155.979 357.574 156.527 356.704 157.429C351.399 162.287 347.166 168.18 344.272 174.738C341.377 181.295 339.884 188.375 339.887 195.532C339.898 204.653 342.323 213.612 346.919 221.515C351.515 229.418 358.123 235.989 366.082 240.574C372.338 244.165 379.279 246.431 386.464 247.227C393.65 248.024 400.925 247.333 407.827 245.2C409.087 244.836 410.148 243.991 410.779 242.852C411.41 241.712 411.558 240.371 411.191 239.123C410.823 237.876 409.971 236.824 408.821 236.199C407.67 235.574 406.317 235.427 405.057 235.791C399.435 237.547 393.506 238.123 387.647 237.482C381.787 236.84 376.128 234.996 371.028 232.067C364.578 228.351 359.223 223.027 355.496 216.624C351.768 210.221 349.797 202.963 349.779 195.571C349.774 189.733 350.995 183.957 353.366 178.612C355.737 173.267 359.205 168.469 363.549 164.524C364.283 163.856 364.796 162.983 365.02 162.02C365.245 161.058 365.17 160.05 364.806 159.131C364.443 158.211 363.807 157.421 362.982 156.866C362.158 156.31 361.183 156.015 360.186 156.018V155.979ZM186.991 155.979C185.989 155.975 185.009 156.273 184.181 156.833C183.354 157.394 182.718 158.19 182.357 159.117C181.997 160.043 181.929 161.057 182.163 162.023C182.397 162.988 182.922 163.861 183.668 164.524C188.012 168.469 191.48 173.267 193.851 178.612C196.222 183.957 197.443 189.733 197.438 195.571C197.42 202.963 195.449 210.221 191.721 216.624C187.993 223.027 182.638 228.351 176.189 232.067C171.09 234.999 165.43 236.844 159.571 237.485C153.711 238.126 147.781 237.55 142.159 235.791C141.536 235.611 140.883 235.554 140.237 235.624C139.591 235.694 138.966 235.89 138.396 236.199C137.827 236.508 137.324 236.926 136.918 237.428C136.511 237.929 136.208 238.506 136.026 239.123C135.844 239.741 135.787 240.388 135.858 241.028C135.928 241.668 136.125 242.287 136.438 242.852C136.75 243.416 137.171 243.914 137.678 244.316C138.184 244.719 138.766 245.019 139.39 245.2C146.286 247.327 153.554 248.015 160.732 247.219C167.911 246.423 174.845 244.16 181.096 240.574C189.056 235.998 195.668 229.435 200.271 221.539C204.874 213.643 207.308 204.689 207.33 195.571C207.338 188.408 205.848 181.32 202.953 174.756C200.059 168.191 195.823 162.291 190.513 157.429C190.058 156.971 189.516 156.607 188.919 156.358C188.321 156.11 187.679 155.98 187.031 155.979H186.991ZM233.287 159.271C231.151 159.311 229.014 159.585 226.917 159.977C225.903 160.132 224.964 160.596 224.228 161.304C223.492 162.011 222.997 162.928 222.81 163.926C222.623 164.925 222.754 165.957 223.185 166.879C223.616 167.8 224.325 168.567 225.215 169.072C226.323 169.699 227.55 169.856 228.697 169.62C235.086 168.324 241.733 169.398 247.374 172.639C251.432 174.969 254.803 178.313 257.15 182.337C259.497 186.361 260.737 190.924 260.748 195.571C260.748 202.314 258.216 208.468 254.022 213.133C253.39 213.838 252.976 214.709 252.832 215.641C252.687 216.573 252.816 217.526 253.205 218.387C253.593 219.248 254.224 219.979 255.022 220.494C255.819 221.008 256.75 221.284 257.702 221.287C259.284 221.287 260.669 220.581 261.54 219.484C267.412 212.877 270.648 204.374 270.641 195.571C270.625 189.202 268.926 182.948 265.711 177.432C262.497 171.916 257.88 167.331 252.32 164.132C246.557 160.821 239.988 159.139 233.327 159.271H233.287ZM-2.62431 159.271C-9.30593 159.156 -15.8907 160.865 -21.6571 164.211C-27.2053 167.402 -31.8149 171.975 -35.0285 177.476C-38.2422 182.978 -39.9483 189.215 -39.9777 195.571C-39.9777 204.744 -36.5351 213.094 -30.8767 219.484C-30.2259 220.257 -29.3506 220.813 -28.3697 221.076C-27.3888 221.338 -26.35 221.296 -25.3945 220.953C-24.4391 220.61 -23.6133 219.985 -23.0296 219.161C-22.4458 218.337 -22.1324 217.354 -22.1319 216.348C-22.1319 215.172 -22.5672 213.996 -23.3586 213.133C-27.6997 208.295 -30.0938 202.045 -30.0853 195.571C-30.0853 186.163 -24.9413 177.343 -16.7109 172.639C-11.0696 169.398 -4.42282 168.324 1.96573 169.62C2.60487 169.736 3.26079 169.726 3.89602 169.591C4.53126 169.456 5.13337 169.198 5.66799 168.832C6.20261 168.466 6.65925 167.999 7.01186 167.459C7.36447 166.918 7.60613 166.314 7.72305 165.681C7.83996 165.048 7.82985 164.398 7.69327 163.768C7.5567 163.139 7.29635 162.543 6.92708 162.013C6.5578 161.483 6.08685 161.031 5.54109 160.682C4.99534 160.332 4.38549 160.093 3.74634 159.977C1.64826 159.554 -0.483778 159.318 -2.62431 159.271V159.271ZM431.885 161.506C423.622 170.955 419.059 183.03 419.025 195.532C419 208.068 423.57 220.187 431.885 229.637V211.056C427.924 201.119 427.924 190.063 431.885 180.126V161.467V161.506ZM368.614 169.816C367.071 169.816 365.686 170.561 364.776 171.659C358.904 178.266 355.668 186.768 355.675 195.571C355.697 201.934 357.4 208.18 360.614 213.688C363.828 219.197 368.442 223.776 373.996 226.971C381.681 231.385 390.73 232.863 399.439 231.126C400.078 231.011 400.688 230.771 401.233 230.422C401.779 230.073 402.25 229.62 402.619 229.091C402.989 228.561 403.249 227.964 403.386 227.335C403.522 226.706 403.532 226.056 403.415 225.423C403.298 224.79 403.057 224.185 402.704 223.645C402.351 223.104 401.895 222.637 401.36 222.272C400.826 221.906 400.223 221.648 399.588 221.513C398.953 221.377 398.297 221.367 397.658 221.483C391.262 222.802 384.599 221.741 378.942 218.504C374.885 216.165 371.518 212.813 369.178 208.782C366.838 204.751 365.607 200.182 365.607 195.532C365.607 188.829 368.139 182.674 372.334 178.009C372.968 177.302 373.382 176.428 373.525 175.492C373.669 174.557 373.536 173.6 373.143 172.738C372.749 171.875 372.112 171.144 371.309 170.633C370.505 170.122 369.569 169.852 368.614 169.856V169.816ZM178.642 169.856C177.687 169.852 176.751 170.122 175.948 170.633C175.144 171.144 174.507 171.875 174.114 172.738C173.721 173.6 173.588 174.557 173.731 175.492C173.875 176.428 174.289 177.302 174.923 178.009C179.264 182.848 181.658 189.098 181.65 195.571C181.65 204.98 176.506 213.8 168.315 218.504C162.662 221.754 156 222.829 149.598 221.522C148.959 221.406 148.303 221.416 147.668 221.552C147.033 221.687 146.431 221.945 145.896 222.311C145.362 222.677 144.905 223.143 144.552 223.684C144.2 224.225 143.958 224.829 143.841 225.462C143.724 226.095 143.734 226.745 143.871 227.374C144.008 228.004 144.268 228.6 144.637 229.13C145.006 229.659 145.477 230.112 146.023 230.461C146.569 230.81 147.179 231.05 147.818 231.166C156.207 232.812 165.228 231.558 173.261 227.01C178.806 223.802 183.407 219.212 186.607 213.697C189.807 208.182 191.495 201.933 191.502 195.571C191.502 186.398 188.06 178.049 182.401 171.659C181.937 171.095 181.352 170.64 180.688 170.328C180.024 170.016 179.298 169.855 178.563 169.856H178.642ZM233.723 174.952C233.169 174.952 232.654 174.991 232.14 175.069C231.479 175.105 230.831 175.271 230.236 175.559C229.641 175.846 229.11 176.25 228.675 176.744C228.24 177.239 227.91 177.815 227.704 178.439C227.498 179.062 227.421 179.72 227.477 180.374C227.532 181.028 227.72 181.664 228.028 182.244C228.337 182.825 228.76 183.338 229.272 183.754C229.784 184.17 230.376 184.479 231.011 184.664C231.647 184.849 232.313 184.905 232.971 184.83C235.053 184.641 237.145 185.048 239.001 186.002C240.856 186.956 242.396 188.418 243.437 190.213C244.479 192.009 244.979 194.063 244.877 196.131C244.775 198.2 244.076 200.196 242.863 201.883C242.494 202.413 242.234 203.01 242.098 203.64C241.962 204.269 241.953 204.92 242.07 205.553C242.188 206.186 242.43 206.791 242.784 207.331C243.137 207.872 243.594 208.338 244.129 208.704C244.665 209.069 245.267 209.327 245.903 209.461C246.539 209.596 247.195 209.606 247.834 209.489C248.473 209.373 249.083 209.132 249.629 208.782C250.175 208.432 250.645 207.979 251.014 207.449C253.508 203.981 254.849 199.829 254.853 195.571C254.853 188.241 250.856 181.381 244.446 177.735C241.179 175.863 237.456 174.914 233.683 174.991L233.723 174.952ZM-2.94086 174.991C-6.6208 174.913 -10.3403 175.814 -13.7037 177.735C-16.8693 179.541 -19.5005 182.139 -21.3338 185.27C-23.1672 188.4 -24.1383 191.952 -24.15 195.571C-24.1549 199.843 -22.813 204.009 -20.3117 207.488C-19.9402 208.019 -19.4669 208.471 -18.9188 208.82C-18.3707 209.169 -17.7587 209.408 -17.1175 209.523C-16.4763 209.637 -15.8186 209.626 -15.182 209.488C-14.5453 209.351 -13.9421 209.091 -13.4069 208.723C-12.8717 208.355 -12.4149 207.886 -12.0626 207.343C-11.7103 206.8 -11.4694 206.194 -11.3537 205.559C-11.2379 204.923 -11.2496 204.272 -11.388 203.641C-11.5265 203.01 -11.789 202.413 -12.1605 201.883C-13.3735 200.196 -14.0724 198.2 -14.1742 196.131C-14.276 194.063 -13.7765 192.009 -12.7348 190.213C-11.6932 188.418 -10.1533 186.956 -8.29796 186.002C-6.44264 185.048 -4.34987 184.641 -2.26818 184.83C-1.61571 184.898 -0.956266 184.836 -0.328228 184.648C0.29981 184.46 0.883892 184.151 1.39002 183.737C1.89614 183.324 2.31419 182.815 2.61984 182.24C2.9255 181.665 3.11263 181.035 3.17037 180.388C3.2281 179.74 3.15527 179.088 2.95613 178.469C2.75699 177.85 2.4355 177.276 2.01039 176.781C1.58528 176.286 1.06503 175.88 0.479941 175.586C-0.105152 175.292 -0.743402 175.116 -1.39766 175.069C-1.92435 175.028 -2.45217 175.002 -2.98043 174.991H-2.94086ZM379.496 181.498C377.794 181.498 376.33 182.321 375.38 183.654C372.893 187.138 371.565 191.304 371.582 195.571C371.589 199.182 372.55 202.728 374.369 205.857C376.188 208.986 378.801 211.589 381.949 213.408C385.682 215.552 389.999 216.484 394.295 216.073C394.944 216.017 395.576 215.834 396.154 215.535C396.732 215.237 397.246 214.828 397.665 214.333C398.083 213.838 398.4 213.266 398.596 212.65C398.791 212.034 398.863 211.386 398.805 210.742C398.748 210.099 398.564 209.473 398.262 208.9C397.961 208.327 397.549 207.818 397.049 207.403C396.549 206.988 395.972 206.675 395.35 206.481C394.728 206.287 394.074 206.217 393.424 206.273C391.349 206.456 389.264 206.047 387.416 205.094C385.567 204.142 384.033 202.685 382.993 200.897C381.953 199.108 381.451 197.062 381.546 195C381.642 192.939 382.331 190.947 383.532 189.26C384.064 188.527 384.382 187.662 384.449 186.76C384.517 185.859 384.331 184.957 383.914 184.154C383.496 183.351 382.862 182.678 382.083 182.209C381.303 181.74 380.408 181.494 379.496 181.498V181.498ZM167.8 181.498C166.888 181.494 165.993 181.74 165.213 182.209C164.434 182.678 163.8 183.351 163.382 184.154C162.965 184.957 162.779 185.859 162.847 186.76C162.914 187.662 163.232 188.527 163.764 189.26C164.977 190.947 165.676 192.943 165.778 195.011C165.88 197.08 165.38 199.134 164.339 200.929C163.297 202.725 161.757 204.187 159.902 205.141C158.046 206.095 155.954 206.502 153.872 206.312C153.222 206.256 152.568 206.326 151.946 206.52C151.324 206.714 150.747 207.028 150.247 207.443C149.747 207.858 149.335 208.366 149.034 208.939C148.732 209.512 148.548 210.138 148.491 210.781C148.433 211.425 148.505 212.073 148.7 212.689C148.896 213.305 149.213 213.877 149.631 214.372C150.05 214.867 150.564 215.276 151.142 215.575C151.72 215.873 152.352 216.056 153.001 216.113C157.156 216.505 161.469 215.642 165.347 213.368C168.485 211.551 171.089 208.952 172.9 205.831C174.712 202.709 175.668 199.172 175.675 195.571C175.675 191.142 174.25 187.026 171.836 183.654C171.386 182.993 170.779 182.452 170.068 182.076C169.358 181.7 168.566 181.502 167.761 181.498H167.8ZM-3.37612 190.671C-4.68792 190.671 -5.94599 191.187 -6.87358 192.106C-7.80116 193.025 -8.32227 194.272 -8.32227 195.571C-8.32227 196.871 -7.80116 198.117 -6.87358 199.036C-5.94599 199.955 -4.68792 200.471 -3.37612 200.471C-2.06432 200.471 -0.806245 199.955 0.121338 199.036C1.04892 198.117 1.57003 196.871 1.57003 195.571C1.57003 194.272 1.04892 193.025 0.121338 192.106C-0.806245 191.187 -2.06432 190.671 -3.37612 190.671V190.671ZM392.316 190.671C391.004 190.671 389.746 191.187 388.819 192.106C387.891 193.025 387.37 194.272 387.37 195.571C387.37 196.871 387.891 198.117 388.819 199.036C389.746 199.955 391.004 200.471 392.316 200.471C393.628 200.471 394.886 199.955 395.814 199.036C396.741 198.117 397.262 196.871 397.262 195.571C397.262 194.272 396.741 193.025 395.814 192.106C394.886 191.187 393.628 190.671 392.316 190.671V190.671ZM155.257 190.671C153.945 190.578 152.65 191.004 151.655 191.857C150.661 192.71 150.049 193.919 149.955 195.219C149.86 196.518 150.291 197.802 151.152 198.787C152.012 199.772 153.233 200.378 154.545 200.471C155.194 200.518 155.847 200.437 156.465 200.233C157.083 200.03 157.654 199.708 158.146 199.286C158.639 198.863 159.042 198.349 159.334 197.772C159.626 197.196 159.8 196.568 159.847 195.924C159.894 195.281 159.812 194.634 159.607 194.022C159.401 193.41 159.076 192.844 158.65 192.356C158.224 191.868 157.705 191.468 157.123 191.179C156.54 190.89 155.906 190.718 155.257 190.671ZM233.683 190.671C233.034 190.718 232.4 190.89 231.817 191.179C231.235 191.468 230.716 191.868 230.29 192.356C229.864 192.844 229.539 193.41 229.333 194.022C229.128 194.634 229.046 195.281 229.093 195.924C229.14 196.568 229.314 197.196 229.606 197.772C229.898 198.349 230.301 198.863 230.794 199.286C231.286 199.708 231.857 200.03 232.475 200.233C233.093 200.437 233.746 200.518 234.395 200.471C235.707 200.378 236.928 199.772 237.789 198.787C238.649 197.802 239.08 196.518 238.985 195.219C238.891 193.919 238.279 192.71 237.285 191.857C236.29 191.004 234.995 190.578 233.683 190.671ZM36.2327 195.885C19.4842 195.852 3.30949 201.928 -9.20648 212.954C-21.7225 223.979 -29.7039 239.183 -31.6285 255.666C-31.7857 256.584 -31.6755 257.527 -31.3111 258.385C-30.9467 259.244 -30.343 259.981 -29.5708 260.512C-28.7986 261.042 -27.8898 261.344 -26.9508 261.381C-26.0117 261.419 -25.0814 261.19 -24.2687 260.723C-23.5996 260.333 -23.0326 259.793 -22.6132 259.146C-22.1939 258.499 -21.9342 257.764 -21.8549 256.999C-20.8303 248.002 -17.6859 239.37 -12.6753 231.798C-7.66472 224.226 -0.92822 217.927 6.99102 213.408C15.8701 208.352 25.9322 205.691 36.1733 205.691C46.4145 205.691 56.4766 208.352 65.3556 213.408C73.2725 217.935 80.0043 224.243 85.0081 231.821C90.0119 239.4 93.1475 248.038 94.162 257.038C94.213 257.707 94.402 258.358 94.7172 258.951C95.0324 259.544 95.4671 260.067 95.9945 260.487C96.5218 260.907 97.1306 261.216 97.7831 261.393C98.4356 261.571 99.118 261.614 99.788 261.52C100.458 261.426 101.101 261.197 101.678 260.847C102.255 260.496 102.754 260.032 103.143 259.484C103.531 258.935 103.802 258.313 103.939 257.656C104.075 257 104.074 256.322 103.936 255.666C102.013 239.204 94.0489 224.016 81.5579 212.993C69.0668 201.97 52.9211 195.881 36.1931 195.885H36.2327ZM-42.9453 211.056V229.637C-41.7015 231.065 -40.3806 232.426 -38.9884 233.714C-38.2989 234.406 -37.4169 234.88 -36.4548 235.074C-35.4926 235.269 -34.4938 235.175 -33.5857 234.805C-32.6775 234.435 -31.901 233.805 -31.3552 232.997C-30.8093 232.188 -30.5188 231.237 -30.5206 230.264C-30.5206 228.814 -31.1537 227.52 -32.1034 226.658C-36.8625 222.337 -40.5696 217.002 -42.9453 211.056V211.056ZM36.1931 211.565C24.304 211.544 12.7622 215.535 3.46924 222.882C-5.8237 230.228 -12.3133 240.492 -14.9303 251.981C-15.2452 253.244 -15.0406 254.58 -14.3616 255.694C-13.6826 256.807 -12.5848 257.608 -11.3097 257.92C-10.0347 258.232 -8.68677 258.029 -7.56253 257.357C-6.4383 256.684 -5.62984 255.596 -5.31501 254.333C-4.04144 248.629 -1.58224 243.249 1.90588 238.538C5.39399 233.827 9.83451 229.888 14.9444 226.971C21.4148 223.284 28.7485 221.343 36.2129 221.343C43.6773 221.343 51.011 223.284 57.4813 226.971C62.5882 229.896 67.0237 233.844 70.5051 238.562C73.9864 243.279 76.4372 248.664 77.7012 254.372C77.9216 255.332 78.4286 256.204 79.1561 256.874C79.8836 257.544 80.7979 257.981 81.78 258.13C82.762 258.278 83.7663 258.129 84.6621 257.704C85.5579 257.278 86.3036 256.596 86.8021 255.745C87.5144 254.568 87.6331 253.236 87.3165 252.02C84.7073 240.524 78.2211 230.251 68.9274 222.897C59.6337 215.543 48.0876 211.546 36.1931 211.565V211.565ZM36.1931 227.246C28.5438 227.225 21.0816 229.587 14.8615 233.998C8.64131 238.409 3.97788 244.645 1.53046 251.824C1.0897 253.051 1.15892 254.401 1.72289 255.578C2.28686 256.754 3.29938 257.66 4.53772 258.097C5.77606 258.533 7.13878 258.465 8.32609 257.906C9.51339 257.347 10.428 256.344 10.8688 255.117C12.9297 248.977 17.1967 243.801 22.8583 240.574C26.9212 238.259 31.526 237.041 36.2129 237.041C40.8997 237.041 45.5046 238.259 49.5675 240.574C55.2142 243.808 59.4664 248.983 61.5174 255.117C61.8177 256.015 62.3737 256.807 63.1182 257.398C63.8628 257.99 64.7642 258.355 65.7137 258.451C66.6632 258.546 67.6203 258.367 68.4695 257.936C69.3187 257.504 70.0237 256.838 70.4996 256.019C71.291 254.686 71.3701 253.157 70.8557 251.824C68.4083 244.645 63.7449 238.409 57.5247 233.998C51.3046 229.587 43.8424 227.225 36.1931 227.246V227.246ZM-42.9453 238.104V250.57C-41.8331 251.04 -40.5857 251.089 -39.4389 250.71C-38.2921 250.331 -37.3254 249.548 -36.7213 248.51C-36.1172 247.473 -35.9177 246.252 -36.1605 245.079C-36.4032 243.905 -37.0714 242.86 -38.0388 242.142C-39.7484 240.873 -41.3864 239.512 -42.9453 238.065L-42.9453 238.104ZM36.1931 242.926C32.2183 242.927 28.3273 244.058 24.9818 246.184C21.6362 248.31 18.9766 251.343 17.3186 254.921C17.0001 255.508 16.8057 256.153 16.7473 256.816C16.6888 257.48 16.7676 258.148 16.9787 258.781C17.1898 259.413 17.5289 259.996 17.9752 260.495C18.4215 260.993 18.9656 261.396 19.5744 261.679C20.1831 261.961 20.8437 262.118 21.5157 262.14C22.1878 262.161 22.8572 262.047 23.483 261.803C24.1088 261.56 24.678 261.192 25.1557 260.723C25.6333 260.255 26.0095 259.694 26.2612 259.077C27.1315 257.191 28.5303 255.593 30.291 254.473C32.0518 253.352 34.1004 252.757 36.1931 252.757C38.2858 252.757 40.3344 253.352 42.0952 254.473C43.8559 255.593 45.2547 257.191 46.125 259.077C46.3767 259.694 46.7529 260.255 47.2305 260.723C47.7082 261.192 48.2774 261.56 48.9032 261.803C49.529 262.047 50.1984 262.161 50.8705 262.14C51.5425 262.118 52.2031 261.961 52.8118 261.679C53.4206 261.396 53.9647 260.993 54.411 260.495C54.8573 259.996 55.1964 259.413 55.4075 258.781C55.6186 258.148 55.6974 257.48 55.6389 256.816C55.5805 256.153 55.3861 255.508 55.0676 254.921C53.4176 251.337 50.7598 248.299 47.4125 246.171C44.0652 244.044 40.17 242.917 36.1931 242.926V242.926ZM35.837 258.606C34.5879 258.696 33.4194 259.251 32.5675 260.16C31.7156 261.07 31.2437 262.266 31.2469 263.506H41.1393C41.141 262.832 41.0023 262.165 40.7318 261.546C40.4612 260.927 40.0647 260.37 39.567 259.91C39.0693 259.45 38.4811 259.097 37.8393 258.873C37.1975 258.648 36.5158 258.558 35.837 258.606ZM353.103 258.606C352.423 258.552 351.739 258.638 351.094 258.86C350.45 259.083 349.859 259.436 349.36 259.897C348.861 260.358 348.465 260.917 348.196 261.539C347.928 262.16 347.793 262.83 347.801 263.506H357.693C357.706 262.263 357.237 261.062 356.383 260.15C355.529 259.239 354.356 258.686 353.103 258.606V258.606Z" fill="white"/>
</g>
</svg>
